<?xml version="1.0" encoding="UTF-8"?><svg id="Layer_1" xmlns="http://www.w3.org/2000/svg" viewBox="0 0 1918.47 570.65"><defs><style>.cls-1{fill:#1b9768;}</style></defs><path class="cls-1" d="M1864.51,156.57l4.1-14.78c1.57-5.66-3.32-11.02-9.1-9.98l-38.73,6.98c-7.42,1.34-14.97,1.72-22.49,1.13-54.26-4.3-121.23-8.85-174.84-11.24-62.01-32.39-164.89-82.99-211.91-100.77-63.22-23.9-109.74-24.67-173.73-26.98-63.99-2.31-192.23-.67-321.25,10.02-67.8,5.62-79.42,7.31-146.87,41.25-65.65,33.03-152.71,81.46-213.84,118.43-287.06,1.46-459.04,23.49-529.48,88.59-4.09,3.78-5.31,9.68-3.24,14.85,5.85,14.62,11.04,32.26,12.98,47.13,1.13,8.68-3.76,17.01-11.9,20.23-5.36,2.12-11.2,3.75-16.64,4.93-4.96,1.07-8.13,5.83-7.5,10.86,2.1,16.66,6.71,26.89,14.43,41.16l45.69,84.48-31.48,7.43c-2.46,.58-4.19,2.77-4.19,5.3v6.44c0,3.01,2.44,5.44,5.44,5.44H168.42c-14.25-26.22-21.76-56.63-20.22-88.91,4.06-84.87,72.25-154.6,157.01-160.39,87.82-6,162.5,55.1,177.99,137.13l.03-.08,20.82,109.99,820.69-18.95c-8.22-23.57-11.76-49.33-9.29-76.22,8.05-87.67,80.15-157.66,168.02-163.11,93.09-5.77,172.15,59.15,188.62,146.2l13.15,69.48,191.98-39.69c24.67-73.5,41.25-110.89,41.25-165.25-31.61-6.81-46.98-46.58-54.55-84.11-1.14-5.63-.95-11.44,.59-16.97Zm-758.28,5.48l-385.9,13.9,8.65-66.08c19.04-10.9,37.5-20.92,54.83-29.64,63.75-32.07,71.91-32.75,135.36-38.01,63.55-5.27,128.16-8.38,184.96-9.83l26.22,127.89c-7.78,.83-15.77,1.47-24.11,1.77Zm41.97-4.1l-29.24-125.9c14.18-.3,27.8-.49,40.7-.59,18.91-.14,37.52,4.7,53.99,14,34.24,19.34,68.25,43.87,98.48,72.37-57.35,7.94-103.6,30.58-163.93,40.12Z"/><path class="cls-1" d="M62.73,290.53c-.92-5.08-1.67-8.36-3-13.87-.89-3.7-5.65-4.87-14.21-4.05-1.92,.19-3.39,.94-2.97,2.82,1.11,5.04,2.3,10.2,3.55,15.38,9.24,38.38,14.38,42.91,17.39,42.86,4.11-.07,3.67-18.76-.76-43.14Z"/><circle class="cls-1" cx="1494.97" cy="426.84" r="143.81" transform="translate(136.04 1182.12) rotate(-45)"/><circle class="cls-1" cx="317.1" cy="426.84" r="143.81" transform="translate(-208.95 349.24) rotate(-45)"/><path class="cls-1" d="M1849.82,177.98h-14.52c-4.1,0-7.29,3.51-6.92,7.59,1.63,17.64,4.37,34.18,13.05,44.32,7.82,9.14,17.28,12.7,32.17,13.08-10.76-18.34-16.15-33.26-23.78-64.99Z"/></svg>