<?xml version="1.0" encoding="UTF-8"?><svg id="Layer_1" xmlns="http://www.w3.org/2000/svg" viewBox="0 0 1920 648.99"><defs><style>.cls-1{fill:#1b9768;}</style></defs><path class="cls-1" d="M1906.1,409.33h-14.83c9.55-56.27,12.49-113.42,8.99-170.25-.19-3.05,.52-6.09,2.07-8.73l9.65-16.42c1.75-2.98,2.21-6.54,1.29-9.86l-3.91-14.04c-.92-3.28-3.91-5.56-7.32-5.56h-580.75c-10.55,0-14.94,5.69-22.32,26.26-3.61-76.1-11.89-140.51-22.89-181.47-3.95-14.7-17.02-25.09-32.22-25.93-39.74-2.17-80.92-3.33-123.72-3.33-121.99,0-241.19,3.37-356.49,9.78-35,1.95-69.23,11.28-100.3,27.51-76.64,40.04-150.03,85.43-219.79,135.55-150.76,8.12-279.24,21.9-324.65,27.47-50.33,6.18-76.22,21.67-79.81,32.42-14.4,43.16-20.29,91.65-15.55,137.97h0l-14.18,13.6c-6.82,6.54-10.22,15.88-9.19,25.28l5.43,49.78c1.52,13.93,13.99,30.19,46.85,35.5l76.21,12.3v-10.6c0-96.27,78.04-174.3,174.3-174.3s174.3,78.04,174.3,174.3v21.74h874.67v-21.74c0-96.27,78.04-174.3,174.3-174.3s174.3,78.04,174.3,174.3v10.23l179.26-18.5c27.3-2.82,40.18-13.93,40.18-26.8v-38.26c0-10.19-3.86-13.9-13.9-13.9ZM885.75,201.65h-64.66c-12.29,0-24.5,1.91-36.21,5.65l-57.08,18.27c-11.7,3.75-23.92,5.65-36.21,5.65h-79.5l-8.1-90.31c34.49-29.78,60.96-49.96,99.61-73.05,31.92-19.07,55.38-24.53,89.82-27.03,33.54-2.43,67.46-3.78,101.55-5.04l-9.23,165.84Zm326.84-17.54c-10.71,6.86-30.71,17.54-51.41,17.54h-183.89l-9.2-167.94c43.9-.92,88-1.32,132.1-1.32,30.68,0,64.95,.82,95.85,2.44,7.99,.42,14.62,6.23,16.09,14.09,5.49,29.26,8.17,74.39,8.48,120.36,.04,5.99-2.98,11.59-8.03,14.83Z"/><path class="cls-1" d="M58.66,364.13c13.11-1.47,23.36-1.66,28.85-1.66s14.9-.55,21.97-11.18c6.79-10.22,30.21-39.34,36.91-46.62,6.04-6.55,9.64-9.76,9.64-18.59v-26.05c0-7.94-.33-9.29-8.89-9.29H75.62c-9.06,0-15.25,2.34-18.78,46.2-3.37,41.85,1.82,67.18,1.82,67.18Z"/><path class="cls-1" d="M1885.3,254.65c-.15-6.82-5.92-11.61-12.73-11.96-18.37-.94-42.15-.7-60.16-.14-12.96,.41-15.83,4.48-16.09,17.14-.12,5.85,.15,12.99,.55,17.3,1.01,11.08,3.13,17.7,9.33,24,19.6,19.91,33.42,38.71,48.83,60.35,3.59,5.05,8.41,7.37,14.61,7.17,6.08-.19,11.16-4.78,11.88-10.82,4.15-35.04,4.57-68.03,3.8-103.03Z"/><circle class="cls-1" cx="302.98" cy="510.83" r="138.16" transform="translate(-272.47 363.86) rotate(-45)"/><circle class="cls-1" cx="1526.26" cy="510.83" r="138.16" transform="translate(85.82 1228.85) rotate(-45)"/></svg>