<?xml version="1.0" encoding="UTF-8"?><svg id="Layer_1" xmlns="http://www.w3.org/2000/svg" viewBox="0 0 1627.92 1920"><defs><style>.cls-1{fill:#1b9768;}</style></defs><g><path class="cls-1" d="M1120.83,0H16.53C7.48,0,0,7.48,0,16.52V1903.65c0,9.04,7.48,16.35,16.53,16.35H858.49c9.05,0,16.53-7.31,16.53-16.35V633.21h245.8c9.22,0,16.53-7.3,16.53-16.35V16.52c0-9.04-7.3-16.52-16.53-16.52Zm-262.33,600.34c-9.05,0-16.35,7.47-16.35,16.52V1887.12H32.88V32.88H1104.48V600.34h-245.98Z"/><path class="cls-1" d="M32.88,32.88V1887.12H842.14v-156.39c-80.54,55.15-174.48,84.2-273.47,84.2-267.2,0-484.65-217.1-484.65-483.95s217.45-484.31,484.65-484.31c98.81,0,192.93,29.05,273.47,84.37v-314.17c0-9.05,7.3-16.52,16.35-16.52h245.98V32.88H32.88ZM568.67,760.73c-178.13,0-323.04-144.73-323.04-322.69S390.54,115.16,568.67,115.16s323.05,144.9,323.05,322.87-144.91,322.69-323.05,322.69Z"/></g><path class="cls-1" d="M677.06,1245.9c-3.13-4.35-6.79-8.53-10.79-12.53-4-3.82-8-7.47-12.35-10.79-24.36-19.13-53.93-29.4-85.25-29.4s-61.06,10.27-85.24,29.4c-4.17,3.31-8.35,6.97-12.17,10.79s-7.66,8.18-10.96,12.53c-38.8,49.75-38.8,120.2,.17,169.78,3.13,4.35,6.79,8.53,10.79,12.53,4,3.82,8,7.47,12.35,10.79,24.17,19.13,53.92,29.57,85.06,29.57s61.06-10.44,85.25-29.4c4.35-3.48,8.35-7.14,12.35-10.96,4-4,7.47-8,10.79-12.35,39.14-49.58,39.14-120.21,0-169.96Zm-182.49,159c-40.7-40.71-40.7-107.34-.17-148.22,20-19.83,46.27-30.61,74.27-30.61s54.46,10.79,74.29,30.61c40.87,40.88,40.87,107.51,0,148.22-19.83,19.83-46.28,30.78-74.29,30.78s-54.27-10.96-74.1-30.78Z"/><path class="cls-1" d="M871.89,1113.86c-9.22-12.7-19.14-24.87-29.75-36.19-70.1-75.5-169.26-119.33-273.47-119.33-205.44,0-372.62,167.17-372.62,372.63s167.18,372.27,372.62,372.27c104.38,0,203.54-44.02,273.47-119.51,10.61-11.31,20.53-23.49,29.75-36.19,2.09-2.79,3.13-6.09,3.13-9.56v-414.38c0-3.47-1.04-6.96-3.13-9.74Zm-29.75,418.9c-64.02,86.28-165.78,137.61-273.47,137.61-187.35,0-339.74-152.22-339.74-339.39s152.39-339.75,339.74-339.75c107.51,0,209.28,51.32,273.47,137.61v403.93Z"/><path class="cls-1" d="M657.15,1259c-4.2,0-8.42-1.63-11.62-4.83-3.2-3.21-4.81-7.4-4.81-11.6s1.61-8.42,4.81-11.62l94.22-94.22c6.42-6.44,16.84-6.42,23.24,0,3.21,3.2,4.81,7.4,4.81,11.59s-1.59,8.42-4.81,11.62l-94.24,94.23c-3.2,3.2-7.4,4.83-11.6,4.83Z"/><path class="cls-1" d="M751.37,1529.83c-4.2,0-8.41-1.6-11.62-4.81l-94.22-94.24c-3.2-3.2-4.81-7.4-4.81-11.6s1.61-8.42,4.81-11.62c6.44-6.42,16.8-6.42,23.22,0l94.24,94.22c3.21,3.21,4.81,7.43,4.81,11.62s-1.59,8.42-4.81,11.62c-3.2,3.21-7.4,4.81-11.62,4.81Z"/><path class="cls-1" d="M386.01,1529.83c-4.2,0-8.4-1.6-11.6-4.81-3.2-3.2-4.81-7.42-4.81-11.62s1.61-8.41,4.81-11.62l94.22-94.22c6.42-6.42,16.82-6.42,23.22,0,3.21,3.2,4.83,7.4,4.83,11.62s-1.62,8.4-4.83,11.6l-94.2,94.24c-3.2,3.21-7.42,4.81-11.64,4.81Z"/><path class="cls-1" d="M480.25,1259c-4.19,0-8.41-1.63-11.62-4.83l-94.22-94.23c-3.2-3.2-4.81-7.4-4.81-11.62s1.61-8.39,4.81-11.59c6.42-6.44,16.84-6.42,23.24,0l94.2,94.22c3.21,3.2,4.83,7.4,4.83,11.62s-1.62,8.39-4.83,11.6c-3.2,3.2-7.4,4.83-11.6,4.83Z"/><path class="cls-1" d="M868.76,950.52c-8.7-6.79-17.57-13.4-26.61-19.49-80.54-55.32-174.66-84.37-273.47-84.37-267.2,0-484.65,217.28-484.65,484.31s217.45,483.95,484.65,483.95c98.99,0,192.93-29.05,273.47-84.2,9.05-6.08,17.91-12.69,26.61-19.48,3.83-3.13,6.27-7.83,6.27-12.88V963.39c0-5.05-2.26-9.74-6.27-12.87Zm-26.61,739.68c-79.15,60.19-173.44,92.02-273.47,92.02-249.11,0-451.77-202.48-451.77-451.24s202.66-451.61,451.77-451.61c99.86,0,194.32,31.84,273.47,92.03v718.81Z"/><path class="cls-1" d="M643.3,386.88c-3.13-4.52-6.61-8.87-10.61-12.69-4-4.01-8.18-7.48-12.7-10.62-14.96-10.44-32.7-16-51.32-16s-36.35,5.56-51.31,16c-4.53,2.96-8.7,6.61-12.7,10.44-4,4-7.48,8.18-10.62,12.7-10.26,14.96-15.82,32.53-15.82,51.14s5.56,36.36,16,51.32c2.96,4.52,6.44,8.87,10.44,12.87,4,3.83,8.17,7.48,12.7,10.44,14.96,10.44,32.7,16,51.31,16s36.36-5.56,51.32-16c4.52-2.96,8.7-6.44,12.7-10.44s7.48-8.35,10.44-12.87c10.44-14.96,16-32.53,16-51.14s-5.56-36.36-15.83-51.15Zm-115.33,91.86c-10.96-10.79-17.05-25.4-17.05-40.88,.18-15.31,6.09-29.75,17.05-40.53,10.79-10.96,25.4-16.87,40.7-16.87s29.92,5.91,40.88,16.87,16.7,25.23,16.7,40.71-5.91,29.92-16.7,40.7c-10.96,10.96-25.4,17.05-40.88,17.05s-29.92-6.09-40.7-17.05Z"/><path class="cls-1" d="M568.67,207.54c-127.34,0-230.84,103.33-230.84,230.5s103.5,230.5,230.84,230.5,231.02-103.34,231.02-230.5-103.68-230.5-231.02-230.5Zm0,428.11c-109.06,0-197.96-88.72-197.96-197.62s88.9-197.79,197.96-197.79,198.14,88.72,198.14,197.79-88.89,197.62-198.14,197.62Z"/><path class="cls-1" d="M621.86,401.36c-4.22,0-8.41-1.6-11.62-4.81-3.2-3.2-4.81-7.4-4.81-11.62s1.61-8.41,4.81-11.62l56.72-56.67c6.41-6.41,16.83-6.38,23.24,.02,3.2,3.21,4.81,7.43,4.81,11.63s-1.61,8.39-4.83,11.59l-56.7,56.67c-3.2,3.21-7.4,4.81-11.62,4.81Z"/><path class="cls-1" d="M678.56,564.25c-4.2,0-8.4-1.59-11.6-4.79l-56.72-56.67c-3.2-3.2-4.81-7.4-4.81-11.62s1.61-8.4,4.81-11.6c6.42-6.42,16.84-6.44,23.24-.02l56.7,56.67c3.22,3.2,4.83,7.4,4.83,11.62s-1.61,8.4-4.81,11.6c-3.2,3.2-7.42,4.81-11.64,4.81Z"/><path class="cls-1" d="M458.83,564.25c-4.2,0-8.42-1.59-11.62-4.81-3.21-3.2-4.81-7.4-4.81-11.6s1.6-8.42,4.81-11.62l56.61-56.65c6.44-6.44,16.84-6.44,23.24,0,3.21,3.2,4.81,7.4,4.81,11.6s-1.59,8.42-4.81,11.62l-56.61,56.65c-3.21,3.2-7.4,4.81-11.62,4.81Z"/><path class="cls-1" d="M515.55,401.36c-4.22,0-8.42-1.6-11.62-4.81l-56.71-56.67c-3.21-3.2-4.81-7.4-4.81-11.59s1.6-8.42,4.81-11.63c6.41-6.41,16.83-6.43,23.24-.02l56.71,56.67c3.2,3.21,4.81,7.43,4.81,11.62s-1.61,8.42-4.81,11.62c-3.2,3.21-7.42,4.81-11.62,4.81Z"/><path class="cls-1" d="M568.67,115.16c-178.13,0-323.04,144.9-323.04,322.87s144.91,322.69,323.04,322.69,323.05-144.73,323.05-322.69S746.81,115.16,568.67,115.16Zm0,612.68c-159.87,0-290.16-129.94-290.16-289.81S408.81,148.04,568.67,148.04s290.17,130.11,290.17,289.99-130.12,289.81-290.17,289.81Z"/><g><path class="cls-1" d="M1611.57,600.34H858.49c-9.05,0-16.35,7.47-16.35,16.52V1903.65c0,9.04,7.3,16.35,16.35,16.35h753.07c9.05,0,16.35-7.31,16.35-16.35V616.86c0-9.05-7.3-16.52-16.35-16.52Zm-16.53,1286.78H875.02V633.21h720.01V1887.12Z"/><path class="cls-1" d="M875.02,633.21V1887.12h720.01V633.21H875.02Zm360.09,45.93c124.21,0,225.46,100.89,225.46,225.1s-101.25,225.28-225.46,225.28-225.62-101.07-225.62-225.28,101.24-225.1,225.62-225.1Zm0,1169.36c-185.27,0-335.74-150.48-335.74-335.4s150.47-335.4,335.74-335.4,335.57,150.48,335.57,335.4-150.47,335.4-335.57,335.4Z"/></g><path class="cls-1" d="M1315.84,1455.7c-3.13-4.53-6.61-8.7-10.61-12.71-4-3.99-8.18-7.47-12.7-10.61-16.7-12-36.53-18.44-57.58-18.44s-40.88,6.44-57.58,18.44c-4.35,3.13-8.53,6.79-12.52,10.61-4.01,4.01-7.48,8.18-10.62,12.71-12,16.7-18.44,36.52-18.44,57.4s6.44,40.7,18.44,57.4c3.13,4.53,6.61,8.7,10.62,12.71,3.99,3.99,8.17,7.47,12.69,10.43,16.7,12,36.53,18.44,57.41,18.44s40.88-6.44,57.58-18.26c4.52-3.13,8.7-6.62,12.7-10.61,4-4.01,7.48-8.18,10.61-12.71,24.35-34.27,24.35-80.54,0-114.81Zm-127.68,104.2c-12.53-12.53-19.49-29.05-19.49-46.79s6.96-34.44,19.49-46.97c12.52-12.52,29.22-19.31,46.79-19.31s34.44,6.79,46.96,19.31c25.75,25.92,25.75,68.02,0,93.77-12.52,12.53-29.22,19.49-46.96,19.49s-34.27-6.96-46.79-19.49Z"/><path class="cls-1" d="M1235.12,1254.08c-143.17,0-259.55,116.21-259.55,259.03s116.38,259.03,259.55,259.03,259.2-116.21,259.2-259.03-116.2-259.03-259.2-259.03Zm0,485.18c-124.9,0-226.67-101.42-226.67-226.15s101.77-226.32,226.67-226.32,226.33,101.59,226.33,226.32-101.59,226.15-226.33,226.15Z"/><path class="cls-1" d="M1295.32,1469.33c-4.22,0-8.4-1.61-11.61-4.81-6.4-6.44-6.4-16.84,0-23.25l64.26-64.21c6.41-6.41,16.8-6.41,23.22,.02,6.41,6.42,6.41,16.82,0,23.22l-64.26,64.22c-3.21,3.2-7.41,4.81-11.61,4.81Z"/><path class="cls-1" d="M1359.56,1653.92c-4.2,0-8.4-1.61-11.59-4.81l-64.26-64.19c-6.4-6.42-6.4-16.84,0-23.24,6.39-6.41,16.82-6.41,23.22,0l64.26,64.21c6.41,6.42,6.41,16.8,0,23.22-3.21,3.2-7.41,4.81-11.63,4.81Z"/><path class="cls-1" d="M1110.41,1653.92c-4.22,0-8.42-1.61-11.61-4.81-6.41-6.42-6.41-16.8,0-23.22l64.26-64.21c6.41-6.41,16.8-6.41,23.22,0,6.41,6.41,6.41,16.83,0,23.24l-64.26,64.19c-3.21,3.2-7.41,4.81-11.61,4.81Z"/><path class="cls-1" d="M1174.65,1469.33c-4.2,0-8.4-1.61-11.59-4.81l-64.26-64.22c-6.41-6.41-6.41-16.8,0-23.22,6.38-6.44,16.79-6.44,23.22-.02l64.26,64.21c6.41,6.42,6.41,16.82,0,23.25-3.21,3.2-7.41,4.81-11.63,4.81Z"/><path class="cls-1" d="M1235.12,1177.7c-185.27,0-335.74,150.48-335.74,335.4s150.47,335.4,335.74,335.4,335.57-150.48,335.57-335.4-150.47-335.4-335.57-335.4Zm0,637.92c-167,0-303.04-135.69-303.04-302.52s136.03-302.69,303.04-302.69,302.69,135.86,302.69,302.69-135.86,302.52-302.69,302.52Z"/><path class="cls-1" d="M1292.53,870.15c-2.79-4.7-6.09-9.05-10.09-13.05-4-4-8.53-7.48-13.22-10.09-10.27-6.26-22.1-9.56-34.27-9.56s-24,3.3-34.1,9.39c-4.7,2.78-9.05,6.26-13.05,10.26-4,4-7.48,8.35-10.27,13.05-6.08,10.09-9.39,21.91-9.56,34.1,0,12.35,3.3,24,9.56,34.27,2.62,4.71,6.09,9.05,10.09,13.05,4,4.01,8.35,7.48,13.23,10.09,10.09,6.27,21.91,9.57,34.1,9.57s24.18-3.3,34.44-9.57c4.7-2.78,9.05-6.08,13.05-10.09,4-3.99,7.3-8.34,10.09-13.05,6.08-10.26,9.39-21.91,9.39-34.27s-3.31-24-9.39-34.1Zm-81.59,58.28c-6.44-6.44-10.09-15.14-10.09-24.18s3.65-17.57,10.09-24c6.43-6.44,14.96-9.92,24-9.92s17.74,3.48,24.18,10.09c6.43,6.27,9.91,14.79,9.91,23.83s-3.48,17.74-9.91,24.18c-6.44,6.43-14.97,9.91-24.18,9.91s-17.57-3.48-24-9.91Z"/><path class="cls-1" d="M1235.12,741.94c-89.76,0-162.82,72.72-162.82,162.31s73.07,162.65,162.82,162.65,162.48-73.07,162.48-162.65-72.9-162.31-162.48-162.31Zm0,292.08c-71.67,0-129.94-58.28-129.94-129.77s58.28-129.43,129.94-129.43,129.6,58.1,129.6,129.43-58.1,129.77-129.6,129.77Z"/><path class="cls-1" d="M1271.35,884.52c-4.2,0-8.4-1.61-11.59-4.79-6.45-6.42-6.45-16.8-.02-23.24l38.6-38.63c6.43-6.42,16.82-6.42,23.22-.03,6.45,6.42,6.45,16.82,.02,23.24l-38.6,38.64c-3.21,3.2-7.41,4.81-11.63,4.81Z"/><path class="cls-1" d="M1309.97,995.55c-4.2,0-8.4-1.6-11.61-4.81l-38.6-38.47c-6.45-6.41-6.45-16.83-.02-23.24,6.38-6.42,16.79-6.46,23.22-.04l38.6,38.52c6.43,6.41,6.45,16.78,.02,23.22-3.19,3.23-7.41,4.83-11.61,4.83Z"/><path class="cls-1" d="M1160.11,995.55c-4.22,0-8.44-1.6-11.63-4.83-6.43-6.44-6.41-16.81,.04-23.22l38.58-38.52c6.45-6.39,16.84-6.37,23.24,.04,6.38,6.41,6.38,16.84-.04,23.24l-38.58,38.47c-3.21,3.21-7.41,4.81-11.61,4.81Z"/><path class="cls-1" d="M1198.77,884.52c-4.2,0-8.4-1.61-11.61-4.79l-38.67-38.63c-6.43-6.42-6.43-16.84,0-23.24,6.41-6.42,16.79-6.42,23.22,0l38.67,38.61c6.42,6.44,6.42,16.83,.04,23.24-3.23,3.2-7.43,4.81-11.65,4.81Z"/><path class="cls-1" d="M1235.12,679.14c-124.38,0-225.62,100.89-225.62,225.1s101.24,225.28,225.62,225.28,225.46-101.07,225.46-225.28-101.25-225.1-225.46-225.1Zm0,417.5c-106.29,0-192.74-86.28-192.74-192.4s86.45-192.4,192.74-192.4,192.58,86.46,192.58,192.4-86.46,192.4-192.58,192.4Z"/></svg>