<?xml version="1.0" encoding="UTF-8"?><svg id="Layer_1" xmlns="http://www.w3.org/2000/svg" viewBox="0 0 1760.47 1920"><defs><style>.cls-1{fill:#1b9768;}</style></defs><path class="cls-1" d="M864.27,0L4.73,217.27v2.16c-6.16,86.6-24.96,351.02,100.16,865.39,104.48,429.92,480.77,662.91,682.95,788.03l76.43,47.16,76.43-47.46c202.17-125.12,578.47-357.81,682.94-787.72,59.48-243.78,122.35-738.41,136.84-858.3L864.27,0Zm694.96,1069.41c-98.01,403.1-459.2,626.85-653.36,747.04l-41.6,25.58-41.61-25.58c-194.16-120.19-555.35-343.94-653.35-747.04-61.02-250.56-112.18-542.1-100.47-800.05l49.62-12.64h.92l2.16-.62h.31L864.27,68.41l745.19,188.3h.62l66.26,16.95c-9.55,258.57-62.87,572.61-117.11,795.74Z"/><path class="cls-1" d="M864.27,171.66L266.38,322.67c-45.61,11.71-77.66,19.73-100.47,24.65-.31,71.19,7.4,314.97,100.47,698.35,86.91,356.57,402.19,557.51,597.89,678.63,195.69-121.12,510.97-322.05,597.88-678.63,93.07-383.38,100.78-627.16,100.47-698.35-22.5-4.93-54.86-12.94-100.47-24.65L864.27,171.66Z"/></svg>