<?xml version="1.0" encoding="UTF-8"?><svg id="Layer_1" xmlns="http://www.w3.org/2000/svg" viewBox="0 0 567.79 1920"><defs><style>.cls-1{fill:#1b9768;}</style></defs><path class="cls-1" d="M552.45,1009.1c-1.23-.63-12.9-6.49-31.5-13.61-3.25-1.91-6.84-3.34-10.78-4.01-.06-.01-.12-.02-.18-.03-26.27-9.29-62.46-19.45-102.45-22.93v-74.81c109.51-15.21,153.94-33.96,153.94-76.01,0-37.97-38.33-59.67-132.05-83.23,.6-1.38,1.45-2.69,2.59-3.82l20.59-20.47c4.84-4.81,4.84-12.64,0-17.45l-20.59-20.47c-4.84-4.81-4.84-12.64,0-17.45l15.88-15.78c68.96-14.55,113.59-38.86,113.59-84.91s-41.28-71.39-110.94-91l-18.52-18.42c-4.84-4.81-4.84-12.64,0-17.45l11.12-11.06c2.78-.32,5.68-.63,8.37-.97,62.3-7.73,109.97-16.81,109.97-56.55,0-10.35-4.28-20.22-12.06-27.83-8.14-7.95-20.06-19.59-102.95-27.47h50.88c9.37,0,18.13-4.66,23.37-12.43,5.24-7.77,6.26-17.64,2.74-26.33l-26.42-65.16c-4.31-10.63-14.64-17.59-26.11-17.59h-25.54V99.06c0-15.56-12.61-28.18-28.18-28.18h-16.88V9.83c0-5.43-4.4-9.83-9.83-9.83h-1.47c-5.43,0-9.83,4.4-9.83,9.83v61.05h-73.82V9.83c0-5.43-4.4-9.83-9.83-9.83h-1.47c-5.43,0-9.83,4.4-9.83,9.83v61.05h-73.82V9.83c0-5.43-4.4-9.83-9.83-9.83h-1.47c-5.43,0-9.83,4.4-9.83,9.83v61.05h-16.88c-15.56,0-28.18,12.61-28.18,28.18v82.77h-25.54c-11.47,0-21.8,6.96-26.11,17.59l-26.42,65.16c-3.52,8.69-2.49,18.56,2.74,26.33,1.22,1.82,2.65,3.44,4.23,4.9-7.49,.13-11.75,.23-11.96,.23-17.66,.41-31.66,15.05-31.25,32.71,.4,17.41,14.64,31.26,31.96,31.26,.24,0,.5,0,.74,0,32.22-.73,65.41-1.16,98.48-1.3,.41,3.61-.72,7.36-3.5,10.12l-6.31,6.27c-9.56,.89-18.74,1.81-27.24,2.79-45.42,5.21-92.39,10.6-92.39,48.9,0,34.58,40.4,41.63,67.13,46.29,10.46,1.83,22.39,3.58,35.45,5.33,.6,1.53,1.52,2.97,2.76,4.2l20.59,20.47c4.84,4.81,4.84,12.64,0,17.45l-20.59,20.47c-4.84,4.81-4.84,12.64,0,17.45l20.59,20.47c4.84,4.81,4.84,12.64,0,17.45l-7.81,7.76c-95.72,8.06-140.15,18.92-140.15,60.23,0,37.93,40.71,55.12,150.88,78.96-.59,1.74-1.53,3.38-2.93,4.76l-19.58,19.47c-5.22,5.19-4.75,13.76,1,18.35l43.06,34.35v32.97c-33.24,3.38-63.8,6.89-89.28,10.93-39.18,6.22-92.84,14.74-92.84,55.74,0,32.23,26.02,51.21,90.78,67.76-31.34,10.2-51.91,20.58-53.57,21.43-8.12,4.16-13.73,11.99-15.05,21.01-1.32,9.03,1.82,18.13,8.41,24.44l151.55,144.89v454.2H70.29c-7.78,0-14.09,6.31-14.09,14.09v210.45c0,7.78,6.31,14.09,14.09,14.09h111.87c.24,15.35,12.72,27.74,28.13,27.74h169.06c15.56,0,28.18-12.62,28.18-28.18v-692.38l151.55-144.89c6.59-6.3,9.73-15.41,8.41-24.44-1.32-9.03-6.93-16.86-15.05-21.01Zm-266.43,13.13l-217.4,12.84,332.21,19.62-65.63,117.89-124.91,15.14v-.32l-160.26-153.21s44.22-22.6,102.77-33.27c36.6,6.75,80.65,13.59,133.2,21.32Zm-75.72-93.27v-104.67h117.4v110.38l-9.98-89.36-12.85,115.03c-31.46-4.59-63.9-9.44-94.58-14.45v-16.94Zm0,260.17l117.39,14.23v404.68l-11.72-362.98-20.89,646.75h-84.77v-702.68Zm197.24-360.01v-8.87l24.06-19.19c18.3,4.9,34.42,9.82,46.68,14.59-17.6,4.94-42.64,9.42-70.73,13.47Zm-197.28-285.59c8.91-.53,18.42-.86,27.92-.85,9.51,0,19.01,.3,27.92,.84,8.91,.49,17.23,1.25,24.36,2.16,14.26,1.67,23.76,4.05,23.76,4.05,0,0-9.51,2.37-23.76,4.04-7.13,.91-15.45,1.67-24.36,2.16-8.91,.54-18.42,.84-27.92,.84-9.51,0-19.01-.32-27.92-.85-8.91-.5-17.23-1.25-24.36-2.16-14.26-1.67-23.76-4.03-23.76-4.03,0,0,9.5-2.36,23.76-4.03,7.13-.91,15.45-1.66,24.36-2.16Zm0,78.64c8.91-.53,18.42-.86,27.92-.86,9.51,0,19.01,.3,27.92,.84,8.91,.49,17.23,1.25,24.36,2.16,14.26,1.67,23.76,4.04,23.76,4.04,0,0-9.51,2.37-23.76,4.05-7.13,.91-15.45,1.67-24.36,2.16-8.91,.54-18.42,.84-27.92,.84-9.51,0-19.01-.32-27.92-.86-8.91-.5-17.23-1.25-24.36-2.16-14.26-1.67-23.76-4.03-23.76-4.03,0,0,9.5-2.36,23.76-4.03,7.13-.91,15.45-1.66,24.36-2.16Zm25.72,72.5c9.51,0,19.01,.3,27.92,.84,8.91,.49,17.23,1.25,24.36,2.16,14.26,1.67,23.76,4.04,23.76,4.04,0,0-9.51,2.37-23.76,4.05-1.63,.21-3.33,.4-5.07,.59l-54.58-11.56c2.46-.04,4.9-.12,7.37-.12Zm198.95-118.66l17.68-17.58c4.84-4.81,4.84-12.64,0-17.45l-15.42-15.33c43.6,12.76,56.2,23.93,59.44,27.86-3.89,3.7-17.75,13.22-61.7,22.5Zm-224.67-177.61c8.91-.53,18.42-.86,27.92-.85,9.51,0,19.01,.3,27.92,.84,8.91,.49,17.23,1.25,24.36,2.16,14.26,1.67,23.76,4.05,23.76,4.05,0,0-9.51,2.37-23.76,4.04-7.13,.91-15.45,1.67-24.36,2.16-8.91,.54-18.42,.84-27.92,.84-9.51,0-19.01-.32-27.92-.85-8.91-.5-17.23-1.25-24.36-2.16-14.26-1.67-23.76-4.03-23.76-4.03,0,0,9.5-2.36,23.76-4.03,7.13-.91,15.45-1.66,24.36-2.16ZM172.43,99.06h165.54l10.57,84.1,7.92-63.07v73.05l-181.69,16.43,185.85,16.81,14.79,48.79H92.3l26.42-65.16h53.71V99.06ZM61.92,328.02s29.54-4.23,73.99-7.09c22.22-1.54,48.16-2.77,75.98-3.39,13.91-.21,28.28-.73,42.89-.56,14.61,.13,29.45,.26,44.3,.39,14.84,.54,29.69,1.09,44.3,1.63,14.62,.56,28.98,1.77,42.9,2.78,13.92,.99,27.34,2.5,40.07,4.01,12.73,1.45,24.74,3.29,35.79,5.24,22.1,3.84,40.42,8.58,52.64,13.93,6.11,2.62,10.63,5.72,12.89,8.61,2.35,3.04,1.66,5.13,1.83,5.07-.1,.12-.06-2.21-2.66-4.29-2.54-2.18-7.27-3.9-13.4-5.43-12.38-2.93-30.7-4.57-52.7-5.9-11.01-.62-22.97-1.03-35.61-1.57-12.66-.36-26.01-.75-39.82-1.14-27.67-.58-57.17-1.21-86.68-1.83-14.77-.37-29.54-.74-44.08-1.11-14.55-.18-28.86-.91-42.72-1.24-27.72-.85-53.6-1.89-75.81-3.08-44.4-2.16-74.08-5.04-74.08-5.04Zm19.16,110.78c-6.55-2.29-11.54-4.82-14.52-7.19-.73-.62-1.3-1.27-1.8-1.77-.37-.65-.7-1.17-.89-1.6-.13-.96-.19-1.46-.19-1.46,0,0,.16,.45,.46,1.33,.27,.37,.68,.78,1.1,1.28,.58,.38,1.19,.85,1.96,1.27,3.16,1.66,8.34,2.87,14.96,4.08,13.31,2.31,32.68,3.9,55.94,5.78,23.28,1.76,50.49,3.76,79.65,6.46,14.56,1.45,29.67,2.63,44.95,4.54,15.29,1.8,30.83,3.69,46.36,5.78,15.5,2.32,30.99,4.79,46.23,7.47,15.25,2.61,30.13,5.96,44.54,9.25,14.41,3.27,28.21,7.19,41.2,11.29,13.01,4.03,25.11,8.67,36.03,13.62,10.95,4.88,20.63,10.33,28.64,16.09,8.07,5.65,14.24,12.04,18.13,18.06,3.94,6.03,5.39,11.6,5.62,15.38,.31,1.85,.02,3.25,.07,4.2-.02,.95-.04,1.44-.04,1.44,0,0-.09-.48-.25-1.42-.25-.91-.25-2.38-.91-4.07-.87-3.44-3.45-8.17-7.8-12.98-8.81-9.8-26.13-18.39-47.85-25.45-10.89-3.53-22.96-6.67-35.81-9.72-12.87-3-26.61-5.56-40.83-8.27-14.23-2.69-29.07-4.83-44.11-7.31-15.06-2.41-30.41-4.61-45.81-6.67-30.82-4.34-61.64-8.68-90.54-12.75-28.94-4.17-55.98-8.43-79.08-12.92-23.11-4.37-42.31-9.04-55.4-13.74Zm79.46,228.75c-.59,1.71-1.53,3.33-2.9,4.69l-4.02,4c-8.48-1.94-16.76-3.87-24.48-5.79,9.98-1.04,20.59-1.99,31.4-2.9Zm-104.89,14.13c-6.22-3.87-10.55-8.05-12.5-11.55-1.95-3.57-1.32-5.82-1.48-5.75,.13-.07,.02,2.26,2.43,5.11,2.37,2.87,7.13,5.71,13.52,8.48,12.88,5.5,32.59,10.28,56.36,15.3,23.82,4.89,51.81,9.91,81.85,15.36,15,2.82,30.59,5.3,46.34,8.41,15.78,2.99,31.81,6.03,47.85,9.07,16,3.34,32,6.69,47.75,9.98,15.76,3.29,31.16,7.17,46.09,10.8,14.94,3.6,29.27,7.66,42.83,11.66,13.57,3.93,26.28,8.2,37.9,12.52,23.22,8.56,42.13,17.86,53.57,27.3,5.79,4.6,9.24,9.66,10.54,13.42,1.25,3.89,.6,5.89,.8,5.91-.16,.1-.02-2.25-1.84-5.44-1.84-3.24-5.9-6.99-11.91-10.46-12.05-6.99-31.32-13.17-54.76-19.19-11.74-2.99-24.59-5.82-38.19-8.83-13.67-2.79-28.08-5.73-42.99-8.77-29.96-5.8-61.92-11.99-93.88-18.17-15.99-3.27-31.97-6.55-47.71-9.77-15.77-3.12-31.18-6.84-46.14-10.21-29.89-6.93-57.68-14.23-81.19-21.86-23.51-7.51-42.82-15.39-55.23-23.31Zm104.28,97.59s9.5-2.36,23.76-4.03c7.13-.91,15.45-1.66,24.36-2.16,8.91-.53,18.42-.86,27.92-.86,9.5,0,19.01,.3,27.92,.84,8.91,.49,17.23,1.25,24.36,2.16,14.26,1.67,23.76,4.04,23.76,4.04,0,0-9.51,2.37-23.76,4.05-7.13,.91-15.45,1.67-24.36,2.16-8.91,.54-18.42,.84-27.92,.84-9.51,0-19.01-.32-27.92-.86-8.91-.5-17.23-1.25-24.36-2.16-14.26-1.67-23.76-4.03-23.76-4.03Zm22.19,138.32v23.56c-27.63-4.82-52.89-9.76-73.32-14.74,21.52-3.15,47.19-6.1,73.32-8.83Zm-87.78,44.14c-22.18-7.11-40.39-15.14-51.46-23.76-5.56-4.21-9.02-8.91-10.15-12.5-1.18-3.6-.62-5.59-.73-5.57,.1-.04,.01,2.06,1.78,5.09,1.69,3.07,5.7,6.4,11.41,9.46,11.55,6.1,29.96,10.97,52.25,15.54,11.18,2.24,23.37,4.34,36.28,6.55,12.96,2.02,26.64,4.15,40.78,6.35,28.4,4.15,58.7,8.58,89,13.01,15.16,2.35,30.32,4.71,45.24,7.02,14.94,2.22,29.58,4.93,43.79,7.27,14.21,2.32,27.9,4.97,40.88,7.41,13,2.38,25.24,4.93,36.54,7.32,45.21,9.4,74.9,18.09,74.9,18.09,0,0-7.72-.42-21.16-1.4-13.44-1.01-32.62-2.51-55.55-4.75-11.47-1.09-23.9-2.23-37.01-3.71-13.12-1.42-26.97-2.78-41.25-4.59-14.28-1.79-29.09-3.33-44.06-5.46-14.98-2.08-30.21-4.2-45.43-6.31-15.19-2.46-30.38-4.92-45.33-7.34-14.97-2.39-29.6-5.45-43.79-8.24-28.35-5.76-54.7-12.26-76.9-19.49Zm-9.96,720.09h97.74v182.27H84.38v-182.27Z"/><path class="cls-1" d="M135.01,1778.87c-18.1,0-32.83,14.72-32.83,32.82s14.73,32.83,32.83,32.83,32.83-14.72,32.83-32.83-14.73-32.82-32.83-32.82Zm0,51.56c-10.35,0-18.74-8.39-18.74-18.74s8.39-18.74,18.74-18.74,18.74,8.39,18.74,18.74-8.39,18.74-18.74,18.74Z"/><path class="cls-1" d="M135.01,1769.68c18.1,0,32.83-14.72,32.83-32.82s-14.73-32.83-32.83-32.83-32.83,14.73-32.83,32.83,14.73,32.82,32.83,32.82Zm0-51.56c10.35,0,18.74,8.39,18.74,18.74s-8.39,18.74-18.74,18.74-18.74-8.39-18.74-18.74,8.39-18.74,18.74-18.74Z"/><path class="cls-1" d="M219.94,1671.24c.49,36.53,1.25,70.62,2.16,99.84,.79,29.22,2.07,53.57,2.67,70.62,.75,17.05,1.37,26.79,1.37,26.79,0,0,.62-9.74,1.37-26.79,.6-17.05,1.89-41.4,2.67-70.62,.91-29.22,1.67-63.32,2.16-99.84,.18-18.26,.6-37.14,.6-56.31,.08-19.18,.16-38.66,.24-58.14-.08-19.48-.16-38.96-.25-58.14-.21-19.18-.41-38.05-.61-56.31-.5-36.53-1.25-70.62-2.16-99.84-.79-29.22-2.06-53.57-2.66-70.62-.74-17.05-1.36-26.79-1.36-26.79,0,0-.62,9.74-1.36,26.79-.6,17.05-1.87,41.4-2.66,70.62-.91,29.22-1.66,63.32-2.16,99.84-.2,18.26-.4,37.14-.61,56.31-.08,19.18-.16,38.66-.24,58.14,.08,19.48,.16,38.96,.24,58.14,0,19.18,.42,38.05,.6,56.31Z"/><path class="cls-1" d="M130.92,1095.79c6.61,7.36,13.82,15.04,21.27,22.48,7.45,7.45,15.11,14.69,22.47,21.28,7.33,6.63,14.38,12.62,20.61,17.56,12.36,9.99,21.48,15.76,21.48,15.76,0,0-5.77-9.12-15.76-21.48-4.94-6.23-10.92-13.28-17.56-20.61-6.6-7.37-13.84-15.03-21.28-22.47-7.44-7.45-15.12-14.67-22.48-21.27-7.34-6.63-14.38-12.61-20.61-17.56-12.35-9.99-21.47-15.77-21.47-15.77,0,0,5.78,9.11,15.77,21.47,4.94,6.23,10.93,13.28,17.56,20.61Z"/></svg>