<?xml version="1.0" encoding="UTF-8"?><svg id="Layer_1" xmlns="http://www.w3.org/2000/svg" viewBox="0 0 639.99 1920"><defs><style>.cls-1{fill:#fff;}.cls-2{fill:#1b9768;}.cls-3{fill:#4a4f4e;}</style></defs><path class="cls-3" d="M639.98,1684.51V1022.93c0-34.75-28.17-62.92-62.92-62.92h-194.15c-.09,0-.17-.01-.25-.01-1.85,142.88-1.27,698.72,119.13,715.17,45.21,6.18,94.04,11.37,138.2,9.34Z"/><path class="cls-1" d="M639.99,1022.92v834.18c0,34.73-28.18,62.9-62.94,62.9h-194.16c-34.72,0-62.9-28.18-62.9-62.9v-514.19c0-34.73-28.17-62.9-62.94-62.9H62.9c-34.76,0-62.9-28.18-62.9-62.94V62.94C0,28.18,28.14,0,62.9,0h194.16c.99,0,1.94,.04,2.93,.07,.95,.04,1.94,.11,2.89,.22,.95,.07,1.9,.22,2.86,.33,.95,.15,1.9,.29,2.82,.48v.04c29.27,5.42,51.45,30.96,51.45,61.8V897.08c0,34.76,28.18,62.94,62.9,62.94h194.16c34.76,0,62.94,28.18,62.94,62.9Z"/><g><path class="cls-2" d="M133.77,180.02v65.05h-23.07V76.1c17.45-.77,27.99-1.16,31.6-1.16,49.06,0,73.59,16.42,73.59,49.25,0,37.99-21.68,56.98-65.05,56.98-2.62,0-8.31-.39-17.07-1.16Zm0-83.16v62.4c9.76,.77,14.92,1.15,15.46,1.15,28.6,0,42.91-11.26,42.91-33.79,0-20.61-15.26-30.91-45.79-30.91-3.08,0-7.27,.39-12.57,1.15Z"/><path class="cls-2" d="M193.09,565.36l-45.1-72.55c-5.15,0-13.3-.38-24.45-1.15v73.7h-23.07v-168.98c.85,0,6.82-.29,17.94-.86,11.11-.58,19.2-.86,24.28-.86,40.6,0,60.9,16.15,60.9,48.44,0,10.61-3.27,20.17-9.8,28.66-6.54,8.5-14.3,13.78-23.3,15.86l49.02,77.74h-26.41Zm-69.55-148.22v54.9c5.54,.77,10.92,1.15,16.15,1.15,13.84,0,23.91-2.23,30.22-6.69,6.3-4.46,9.46-12.42,9.46-23.87,0-9.46-3.38-16.26-10.15-20.42-6.77-4.15-17.46-6.23-32.07-6.23-2.31,0-6.85,.39-13.61,1.15Z"/><path class="cls-2" d="M211.14,885.65l-87.31-123.53v121.23h-21.92v-168.98h9.23l85.01,116.84v-116.84h21.92v171.29h-6.92Z"/><path class="cls-2" d="M134.84,1205.07h-34.03v-168.98c21.68-.77,35.56-1.16,41.64-1.16,23.61,0,42.29,7.17,56.06,21.51,13.76,14.34,20.65,33.43,20.65,57.27,0,60.9-28.11,91.35-84.32,91.35Zm-10.96-148.22v126.3c5.15,.77,11.53,1.15,19.15,1.15,16.15,0,28.84-6.06,38.06-18.17,9.23-12.11,13.84-28.93,13.84-50.46,0-39.98-17.96-59.98-53.87-59.98-2.15,0-7.88,.39-17.19,1.15Z"/><path class="cls-2" d="M432,1192.85l11.07-17.76c7.54,8.31,17.07,12.46,28.61,12.46,21.38,0,32.07-10.46,32.07-31.37,0-9.53-3.11-17.28-9.34-23.24-6.23-5.96-14.5-8.94-24.8-8.94h-1.85v-18.69h1.04c19.53,0,29.3-8.61,29.3-25.84s-9.19-26.99-27.57-26.99c-10,0-17.96,3.35-23.88,10.04l-10.27-15.69c7.15-9.3,19.11-13.96,35.87-13.96,14.76,0,26.8,3.94,36.1,11.82,9.3,7.88,13.96,17.97,13.96,30.28,0,9.38-2.6,17.69-7.79,24.91-5.19,7.23-11.29,12.07-18.28,14.53,9.69,3.15,17.4,8.52,23.13,16.09,5.73,7.57,8.59,16.75,8.59,27.51,0,15.69-4.96,27.8-14.88,36.33-9.92,8.54-23.84,12.8-41.75,12.8-7.54,0-14.92-1.4-22.15-4.21-7.23-2.8-12.96-6.17-17.19-10.09Z"/><path class="cls-2" d="M428.66,1525.99v-4.61l52.94-81.09c11.07-16.99,16.61-31.41,16.61-43.26,0-15.61-8.81-23.41-26.41-23.41-6.23,0-12.07,1.63-17.53,4.9-5.46,3.27-9.42,7.4-11.88,12.4l-14.88-12.23c2.61-7.54,7.75-13.54,15.4-17.99,7.65-4.46,16.9-6.69,27.74-6.69,16.22,0,28.91,3.75,38.06,11.24,9.15,7.5,13.73,18.09,13.73,31.78,0,12.69-6.08,28.68-18.22,47.98l-37.95,60.21h66.21v20.76h-103.81Z"/><path class="cls-2" d="M485.64,1844.84v-129.53l-34.37,21.46v-21.57c8.69-4.38,17.94-10.42,27.74-18.11,9.8-7.69,17.4-14.99,22.78-21.91h6.92v169.67h-23.07Z"/></g></svg>