<?xml version="1.0" encoding="utf-8"?>
<!-- Generator: Adobe Illustrator 26.5.0, SVG Export Plug-In . SVG Version: 6.00 Build 0)  -->
<svg version="1.1" id="Layer_1" xmlns="http://www.w3.org/2000/svg" xmlns:xlink="http://www.w3.org/1999/xlink" x="0px" y="0px"
	 viewBox="0 0 300 300" style="enable-background:new 0 0 300 300;" xml:space="preserve">
<style type="text/css">
	.st0{fill:#4A4F4E;}
	.st1{fill:#FFFFFF;}
	.st2{fill:#1B9768;}
</style>
<g>
	<g>
		<path class="st0" d="M200,263.2V159.83c0-5.43-4.4-9.83-9.83-9.83h-30.34c-0.01,0-0.03,0-0.04,0
			c-0.29,22.33-0.2,109.18,18.61,111.75C185.47,262.71,193.1,263.52,200,263.2z"/>
		<path class="st1" d="M200,159.83v130.34c0,5.43-4.4,9.83-9.83,9.83h-30.34c-5.43,0-9.83-4.4-9.83-9.83v-80.34
			c0-5.43-4.4-9.83-9.83-9.83h-30.34c-5.43,0-9.83-4.4-9.83-9.83V9.83C100,4.4,104.4,0,109.83,0h30.34c0.15,0,0.3,0.01,0.46,0.01
			c0.15,0.01,0.3,0.02,0.45,0.03c0.15,0.01,0.3,0.03,0.45,0.05c0.15,0.02,0.3,0.05,0.44,0.07v0.01c4.57,0.85,8.04,4.84,8.04,9.66
			v130.33c0,5.43,4.4,9.83,9.83,9.83h30.34C195.6,150,200,154.41,200,159.83z"/>
		<g>
			<g>
				<path class="st2" d="M120.9,28.13v10.16h-3.6v-26.4c2.73-0.12,4.37-0.18,4.94-0.18c7.67,0,11.5,2.57,11.5,7.7
					c0,5.94-3.39,8.9-10.16,8.9C123.16,28.31,122.27,28.25,120.9,28.13z M120.9,15.13v9.75c1.53,0.12,2.33,0.18,2.42,0.18
					c4.47,0,6.7-1.76,6.7-5.28c0-3.22-2.39-4.83-7.15-4.83C122.39,14.95,121.73,15.01,120.9,15.13z"/>
			</g>
			<g>
				<path class="st2" d="M130.17,88.34L123.12,77c-0.81,0-2.08-0.06-3.82-0.18v11.52h-3.6v-26.4c0.13,0,1.07-0.05,2.8-0.14
					c1.74-0.09,3-0.14,3.79-0.14c6.34,0,9.52,2.52,9.52,7.57c0,1.66-0.51,3.15-1.53,4.48c-1.02,1.33-2.23,2.15-3.64,2.48l7.66,12.15
					H130.17z M119.3,65.18v8.58c0.87,0.12,1.71,0.18,2.52,0.18c2.16,0,3.74-0.35,4.72-1.05c0.98-0.7,1.48-1.94,1.48-3.73
					c0-1.48-0.53-2.54-1.59-3.19c-1.06-0.65-2.73-0.97-5.01-0.97C121.07,65,120.36,65.06,119.3,65.18z"/>
			</g>
			<g>
				<path class="st2" d="M132.99,138.38l-13.64-19.3v18.94h-3.42v-26.4h1.44l13.28,18.26v-18.26h3.42v26.76H132.99z"/>
			</g>
			<g>
				<path class="st2" d="M121.07,188.29h-5.32v-26.4c3.39-0.12,5.56-0.18,6.51-0.18c3.69,0,6.61,1.12,8.76,3.36
					c2.15,2.24,3.23,5.22,3.23,8.95C134.24,183.53,129.85,188.29,121.07,188.29z M119.36,165.13v19.73c0.8,0.12,1.8,0.18,2.99,0.18
					c2.52,0,4.51-0.95,5.95-2.84c1.44-1.89,2.16-4.52,2.16-7.88c0-6.25-2.81-9.37-8.42-9.37
					C121.71,164.95,120.81,165.01,119.36,165.13z"/>
			</g>
			<g>
				<path class="st2" d="M167.5,186.38l1.73-2.78c1.18,1.3,2.67,1.95,4.47,1.95c3.34,0,5.01-1.63,5.01-4.9
					c0-1.49-0.49-2.7-1.46-3.63c-0.97-0.93-2.26-1.4-3.87-1.4h-0.29v-2.92h0.16c3.05,0,4.58-1.35,4.58-4.04
					c0-2.81-1.44-4.22-4.31-4.22c-1.56,0-2.81,0.52-3.73,1.57l-1.6-2.45c1.12-1.45,2.99-2.18,5.6-2.18c2.31,0,4.19,0.62,5.64,1.85
					c1.45,1.23,2.18,2.81,2.18,4.73c0,1.47-0.41,2.76-1.22,3.89c-0.81,1.13-1.76,1.89-2.86,2.27c1.51,0.49,2.72,1.33,3.61,2.51
					c0.89,1.18,1.34,2.62,1.34,4.3c0,2.45-0.77,4.34-2.32,5.68c-1.55,1.33-3.72,2-6.52,2c-1.18,0-2.33-0.22-3.46-0.66
					C169.06,187.52,168.16,186.99,167.5,186.38z"/>
			</g>
			<g>
				<path class="st2" d="M166.98,238.44v-0.72l8.27-12.67c1.73-2.66,2.6-4.91,2.6-6.76c0-2.44-1.38-3.66-4.13-3.66
					c-0.97,0-1.89,0.26-2.74,0.77c-0.85,0.51-1.47,1.16-1.86,1.94l-2.32-1.91c0.41-1.18,1.21-2.11,2.41-2.81
					c1.2-0.7,2.64-1.05,4.33-1.05c2.53,0,4.52,0.59,5.95,1.76c1.43,1.17,2.14,2.83,2.14,4.97c0,1.98-0.95,4.48-2.85,7.5l-5.93,9.41
					h10.34v3.24H166.98z"/>
			</g>
			<g>
				<path class="st2" d="M175.88,288.26v-20.24l-5.37,3.35V268c1.36-0.68,2.8-1.63,4.33-2.83c1.53-1.2,2.72-2.34,3.56-3.42h1.08
					v26.51H175.88z"/>
			</g>
		</g>
	</g>
</g>
</svg>
