<?xml version="1.0" encoding="UTF-8"?><svg id="Layer_1" xmlns="http://www.w3.org/2000/svg" viewBox="0 0 1920 655.12"><defs><style>.cls-1{fill:#1b9768;}</style></defs><path class="cls-1" d="M1910.35,368.01l-23.33-25.92c-6.9-7.67-10.85-17.54-11.14-27.85l-3.12-109.77c-.26-9.22-7.28-16.85-16.46-17.86l-22.31-2.47c-36.79-36.62-75.64-71.16-116.17-103.68,11.02-2.76,22.21-6.7,33.51-12.35,8.47-4.24,10.23-9.84-.68-11.63l-116.07-19.05C1411.85,.87,1185.58-8.92,960.96,8.12c-54.16,4.11-107.09,18.25-156,41.88-89.48,43.22-176.28,91.1-260.12,143.3-250.53,11.93-442.29,61.28-503.1,113.25-5.94,5.08-9.81,12.14-10.99,19.86l-6.71,44.03-6.1,7.89c-7.02,9.08-10.62,20.34-10.18,31.81l2.32,59.88c.25,6.44-1.09,12.85-3.9,18.65l-4.06,8.4c-1.94,4-2.57,8.51-1.8,12.88l3.92,22.4c1.16,6.61,6.47,11.71,13.12,12.6l131.17,17.58v-47c0-95.54,76-175.17,171.53-176.41,97.06-1.26,176.14,77.05,176.14,173.82v56.66h870.01v-54.07c0-95.54,76-175.17,171.53-176.41,97.06-1.26,176.14,77.05,176.14,173.82v34.77l157.56-30.48c21.45-4.15,37.68-21.79,40.04-43.51l8.3-76.52c1.15-10.63-2.28-21.26-9.43-29.21Zm-871.72-165.22c-111.5,6.95-222.87,13.03-334.1,18.26l11.66-87.39c34.27-18.4,68.87-36.07,103.65-52.87,45.09-21.78,93.44-34.76,143.72-38.57,42.05-3.19,84.17-5.42,126.32-6.7l-51.24,167.28Zm332.36-23.2c-82.71,6.4-165.36,12.36-247.94,17.82l13.39-162.92c78.02-1.01,164.32,1.82,245.91,10.43l-11.36,134.67Zm181.11-33.48l-12.32,19.72c-49.85,4.24-99.68,8.32-149.48,12.22l7.66-131.42c22.06,2.55,43.7,5.54,64.66,9.01,23.77,3.93,45.64,15.34,62.34,32.7l23.7,24.63c8.61,8.95,10.03,22.6,3.45,33.13Z"/><path class="cls-1" d="M1830.43,215.21c-22.82-1.67-45.78-2.69-68.87-3.41-13.29-.42-18.25,10.48-7.5,19.39,23.65,19.6,46.11,40.52,68.22,61.69,6.84,6.56,15.97,10.14,25.44,9.96,3.69-.07,7.39-.11,11.08-.16,.02-23.72-2.16-47.08-7.54-69.52-3.08-12.86-6.65-16.92-20.83-17.96Z"/><circle class="cls-1" cx="322.37" cy="516.91" r="138.21" transform="translate(-271.09 379.34) rotate(-45)"/><circle class="cls-1" cx="1540.04" cy="516.91" r="138.21" transform="translate(85.56 1240.37) rotate(-45)"/><path class="cls-1" d="M160.34,296.1c-31.11,1.54-58.51,5.97-85.76,13.02-9.73,2.52-17.8,10.42-22.81,20.35-9.68,19.2-11,35.4-11,35.4,18.29-2.25,33.13-2.24,51.96-2.01,9.84,.12,19.52-2.76,27.52-8.49,17.14-12.28,33.34-25.81,48.38-40.51,8.96-8.76,3.97-18.36-8.3-17.76Z"/></svg>