<?xml version="1.0" encoding="utf-8"?>
<!-- Generator: Adobe Illustrator 26.5.0, SVG Export Plug-In . SVG Version: 6.00 Build 0)  -->
<svg version="1.1" id="Layer_1" xmlns="http://www.w3.org/2000/svg" xmlns:xlink="http://www.w3.org/1999/xlink" x="0px" y="0px"
	 viewBox="0 0 300 300" style="enable-background:new 0 0 300 300;" xml:space="preserve">
<style type="text/css">
	.st0{fill:#FFFFFF;}
</style>
<g>
	<g>
		<path class="st0" d="M41.57,252.9c-4.24,0-7.67-3.43-7.67-7.67V54.77c0-4.23,3.43-7.67,7.67-7.67c4.24,0,7.67,3.43,7.67,7.67
			v190.47C49.24,249.47,45.81,252.9,41.57,252.9z"/>
	</g>
	<g>
		<path class="st0" d="M186.02,252.9c-4.24,0-7.67-3.43-7.67-7.67V54.77c0-4.23,3.43-7.67,7.67-7.67c4.24,0,7.67,3.43,7.67,7.67
			v190.47C193.69,249.47,190.25,252.9,186.02,252.9z"/>
	</g>
	<g>
		<path class="st0" d="M113.79,252.9c-4.24,0-7.67-3.43-7.67-7.67V54.77c0-4.23,3.43-7.67,7.67-7.67c4.24,0,7.67,3.43,7.67,7.67
			v190.47C121.46,249.47,118.03,252.9,113.79,252.9z"/>
	</g>
	<g>
		<path class="st0" d="M258.16,252.9c-4.24,0-7.67-3.43-7.67-7.67v-94.62c0-4.24,3.43-7.67,7.67-7.67c4.23,0,7.67,3.43,7.67,7.67
			v94.62C265.82,249.47,262.39,252.9,258.16,252.9z"/>
	</g>
	<g>
		<path class="st0" d="M257.85,157.67H41.57c-4.24,0-7.67-3.43-7.67-7.67c0-4.23,3.43-7.67,7.67-7.67h216.28
			c4.23,0,7.67,3.43,7.67,7.67C265.52,154.23,262.08,157.67,257.85,157.67z"/>
	</g>
	<g>
		<path class="st0" d="M193.03,269.01l-8.02,9.98c0.91-0.32,1.87-0.5,3.19-0.5c3.83,0,6.2,1.55,7.52,2.92
			c1.09,1.14,2.64,3.33,2.64,7.02c0,2.92-0.91,6.02-2.87,8.16c-2.78,3.01-6.65,3.42-9.34,3.42c-2.78,0-6.84-0.27-9.84-3.55
			c-2.01-2.14-2.64-4.69-2.64-7.38c0-4.83,2.28-8.25,4.88-11.67l6.97-9.16L193.03,269.01z M189.57,292.89
			c0.82-0.77,1.59-2.05,1.59-4.01c0-1.78-0.73-2.96-1.59-3.74c-1.14-1-2.46-1.28-3.65-1.28c-1.37,0-2.64,0.32-3.69,1.32
			c-0.59,0.55-1.55,1.78-1.55,3.87c0,1.41,0.41,2.73,1.55,3.78c0.87,0.82,2.14,1.41,3.69,1.41
			C187.75,294.26,188.93,293.48,189.57,292.89z"/>
	</g>
	<g>
		<path class="st0" d="M40.23,7.29H35.9V1.37h11.35v30.39h-7.02V7.29z"/>
	</g>
	<g>
		<path class="st0" d="M103.09,9.75c0.27-2.55,1.41-5.24,3.01-6.88c2.23-2.32,5.19-2.87,7.7-2.87c3.74,0,6.43,1.14,7.97,2.69
			c1.28,1.23,2.32,3.24,2.32,6.2c0,1.5-0.27,2.83-1.23,4.15c-0.64,0.91-1.41,1.5-2.28,1.91c1.28,0.46,2.64,1.32,3.46,2.46
			c0.91,1.23,1.41,3.14,1.41,4.78c0,2.32-0.91,4.97-3.05,6.93c-2.6,2.37-5.56,2.64-8.02,2.64c-2.96,0-6.2-0.46-8.89-3.14
			c-1.73-1.78-3.05-4.47-3.37-7.52h7.02c0.09,1.18,0.64,2.6,1.46,3.42c0.73,0.73,1.91,1.23,3.37,1.23c1.18,0,2.32-0.36,3.05-1.05
			c0.73-0.68,1.23-1.87,1.23-3.1c0-1.28-0.59-2.32-1.32-2.92c-1.09-0.87-2.69-0.96-3.74-0.96h-0.55V12.9h0.41
			c0.41,0,2.05-0.05,3.05-0.87c0.64-0.55,1.14-1.5,1.14-2.73c0-1.05-0.41-1.91-1-2.46c-0.55-0.5-1.46-0.91-2.6-0.91
			c-1.18,0-2.14,0.41-2.73,1c-0.64,0.68-1.05,1.87-1.09,2.83H103.09z"/>
	</g>
	<g>
		<path class="st0" d="M195.27,6.61h-10.25l-0.82,4.06c0.77-0.14,1.73-0.23,2.51-0.23c3.42,0,6.06,1.23,7.75,2.96
			c1.37,1.37,2.78,3.74,2.78,7.34c0,3.92-1.69,6.42-3.1,7.84c-2.78,2.73-6.11,3.19-9.2,3.19c-2.87,0-6.29-0.36-10.12-3.33l1.59-6.52
			c0.82,0.91,1.96,1.91,2.92,2.51c1.28,0.82,2.78,1.32,4.6,1.32c1.59,0,3.24-0.36,4.33-1.23c0.96-0.73,1.78-2.05,1.78-3.83
			c0-1.82-0.82-2.92-1.55-3.55c-0.36-0.32-1.87-1.6-5.06-1.6c-2.55,0-4.69,0.77-6.2,1.6l3.1-16.45h14.95V6.61z"/>
	</g>
	<g>
		<path class="st0" d="M53.19,299.32H29.95l9.11-9.93c1.59-1.78,4.01-4.74,4.97-6.2c0.68-1.09,1.82-3.05,1.82-5.15
			c0-1.14-0.46-2.32-1.18-3.01c-0.59-0.55-1.59-0.87-2.78-0.87c-1.32,0-2.19,0.46-2.78,1.09c-0.82,0.91-1.28,2.55-1.28,3.74h-7.02
			c0.23-2.64,1.28-5.65,3.14-7.61c1.46-1.55,4.06-3.14,8.38-3.14c4.42,0,6.79,1.82,7.88,2.87c1.64,1.64,2.83,4.15,2.83,7.29
			c0,2.69-0.82,4.65-2.28,6.7c-1.32,1.82-2.92,3.37-4.88,5.24l-3.19,3.05h10.48V299.32z"/>
	</g>
	<g>
		<path class="st0" d="M122.77,287.33h3.65v5.56h-3.65v5.74h-6.74v-5.74h-14.85v-4.01l13.4-20.64h8.2V287.33z M116.03,287.33v-11.8
			l-7.47,11.8H116.03z"/>
	</g>
	<g>
		<path class="st0" d="M256.92,268.24c3.87,0,6.29,1.28,7.75,2.64c1.28,1.23,2.64,3.42,2.64,6.79c0,1.91-0.41,4.28-2.37,6.2
			c-1.05,1-2.55,1.91-4.24,2.32l9.34,12.44h-8.57l-8.2-11.98v11.98h-7.02v-30.39H256.92z M253.28,282.05h1.59
			c1.28,0,3.01-0.14,4.19-1.32c0.5-0.5,1.14-1.46,1.14-2.96c0-1.73-0.82-2.64-1.41-3.1c-1.14-0.87-2.96-0.96-3.87-0.96h-1.64V282.05
			z"/>
	</g>
</g>
</svg>
