<?xml version="1.0" encoding="UTF-8"?><svg id="Layer_1" xmlns="http://www.w3.org/2000/svg" viewBox="0 0 1920 554.24"><defs><style>.cls-1{fill:#1b9768;}</style></defs><path class="cls-1" d="M1915.07,206c-6.61-20.17-16.58-45.73-29.92-66.81-10.75-16.99-29.12-27.68-49.13-29.6l-74.49-7.17c-77.23-7.43-159.44-6.92-249.31-.53-38.31-9.07-91.46-18.35-127.74-20.3-7.2-.39-13.47,4.79-14.41,11.93l-2.99,22.65c-15.77,1.92-31.71,3.92-47.96,6.08-.55-20.83-2.35-41.35-5.42-61.46-.72-4.74-4.06-8.65-8.56-10.3-4.16-1.53-8.65-2.37-13.35-2.37s-9.19,.84-13.35,2.37c-4.5,1.66-7.84,5.56-8.56,10.3-3.44,22.53-5.3,45.57-5.56,69.01-122.2,17.47-242.43,33.95-396.44,37.23l10.3-78.71c60.26-35.28,123.46-58.31,169.34-69-8.64-12.42-24.25-19.32-68.8-19.32-8.45,2.12-16.35,4.36-23.65,6.71-81.43,26.2-208.16,89.09-283.82,127.81C305.99,121.55,48.48,219.23,0,310.48c0,4.79,7.45,9.44,14.56,11.97,5.23,1.86,9.43,5.83,11.93,10.78,5.97,11.83,7.78,30.87,6.34,47.68-3.55,41.34-12.04,55.04-21.93,63.05l4.31,10.22c1.8,4.27,5.55,7.4,10.09,8.37,28.21,5.99,68.15,8.36,129.07,9.89v-63.69c0-98,77.31-180.37,175.29-182.47,100.77-2.15,183.14,78.89,183.14,179.17v67.69h887.12v-64.4c0-98,77.31-180.37,175.29-182.46,100.77-2.15,183.13,78.89,183.13,179.17v55.21l42.3-9.87c33.77-7.88,61.2-32.42,72.77-65.11l40.82-115.27c7.37-20.8,7.71-43.45,.84-64.42Z"/><path class="cls-1" d="M197.9,210.26c-32.67,4.66-61.09,15.04-87.51,28.58-28.39,14.54-49.06,35.63-49.06,35.63,19.48-2.99,39.41-6.06,61.73-9.24,11.7-1.67,23.02-4.81,32.06-9.87,19.38-10.83,37.52-22.35,54.19-34.48,9.93-7.23,3.19-12.71-11.4-10.63Z"/><path class="cls-1" d="M1870.81,158.54c-6-7.44-8.61-8.79-17.24-9.39-8.63-.6-47.13-1.84-66.04-1.84-7.99,0-8.85,6.11-.75,11.31,17.81,11.43,30.93,20.68,48.13,33.02,5.33,3.82,11.44,5.81,17.03,5.81,26.05,0,40.7,2.86,40.7,2.86-5.66-15.35-14.8-33.05-21.84-41.76Z"/><circle class="cls-1" cx="333.59" cy="403.52" r="150.72"/><circle class="cls-1" cx="1579.13" cy="403.52" r="150.73" transform="translate(177.19 1234.8) rotate(-45)"/></svg>