<?xml version="1.0" encoding="UTF-8"?><svg id="Layer_1" xmlns="http://www.w3.org/2000/svg" viewBox="0 0 1920 405.67"><defs><style>.cls-1{fill:#f6f6f5;}</style></defs><path class="cls-1" d="M353.38,96.3c16.97,30.44,25.46,65.86,25.46,106.26s-8.49,75.82-25.46,106.26c-16.97,30.26-40.68,53.87-71.12,70.84-30.26,16.97-65.68,25.46-106.26,25.46H0V0H176c40.58,0,76.01,8.49,106.26,25.46,30.44,16.97,54.14,40.59,71.12,70.84Zm-138.36,161.05c10.52-10.88,15.77-29.42,15.77-55.62s-5.26-44.46-15.77-55.35c-10.33-11.07-27.58-16.6-51.75-16.6h-17.16v144.17h17.16c24.17,0,41.41-5.53,51.75-16.6Z"/><path class="cls-1" d="M561.75,405.12h-155.8V0h155.8V405.12Z"/><path class="cls-1" d="M1130.5,128.95h-130.06V0h349.23l-144.17,276.72h130.62v128.95l-349.24-.55,143.62-276.17Z"/><path class="cls-1" d="M740.04,128.95h-130.06V0h349.23l-144.17,276.72h130.62v128.95l-349.24-.55,143.62-276.17Z"/><path class="cls-1" d="M1515.15,128.95h-130.06V0h349.23l-144.18,276.72h130.62v128.95l-349.23-.55,143.62-276.17Z"/><path class="cls-1" d="M1920,405.12h-155.8V0h155.8V405.12Z"/></svg>