<?xml version="1.0" encoding="UTF-8"?><svg id="Layer_1" xmlns="http://www.w3.org/2000/svg" viewBox="0 0 1920 1039.57"><defs><style>.cls-1{fill:#fff;}.cls-2{fill:#1b9768;}</style></defs><rect class="cls-2" width="1920" height="1039.57"/><path class="cls-1" d="M136.43,821.5c0-42.96,34.82-77.79,77.79-77.79s77.79,34.83,77.79,77.79-34.83,77.78-77.79,77.78-77.79-34.83-77.79-77.78Z"/><path class="cls-1" d="M162.92,590.83c0-28.33,22.96-51.3,51.3-51.3s51.3,22.97,51.3,51.3-22.97,51.3-51.3,51.3-51.3-22.97-51.3-51.3Z"/><path class="cls-1" d="M162.92,425.7c0-28.33,22.96-51.3,51.3-51.3s51.3,22.97,51.3,51.3-22.97,51.3-51.3,51.3-51.3-22.97-51.3-51.3Z"/><path class="cls-1" d="M162.92,260.57c0-28.33,22.96-51.3,51.3-51.3s51.3,22.97,51.3,51.3-22.97,51.3-51.3,51.3-51.3-22.97-51.3-51.3Z"/><path class="cls-1" d="M1559.29,135.04H404.4c-48.04,0-87.35-17.65-87.35-39.21h0c0-21.56,39.31-39.21,87.35-39.21H1559.29c48.04,0,87.35,17.64,87.35,39.21h0c0,21.56-39.31,39.21-87.35,39.21Z"/><g><g><g><g><g><rect class="cls-1" x="409.09" y="438.44" width="92.98" height="31.66"/><rect class="cls-1" x="409.09" y="479.08" width="92.98" height="31.67"/><rect class="cls-1" x="409.09" y="519.72" width="92.98" height="31.66"/><rect class="cls-1" x="409.09" y="560.85" width="92.98" height="31.66"/><rect class="cls-1" x="409.09" y="601.49" width="92.98" height="31.65"/><rect class="cls-1" x="409.09" y="642.13" width="92.98" height="31.66"/></g><g><rect class="cls-1" x="409.09" y="683.25" width="92.98" height="31.66"/><rect class="cls-1" x="409.09" y="723.9" width="92.98" height="31.66"/><rect class="cls-1" x="409.09" y="764.53" width="92.98" height="31.66"/><rect class="cls-1" x="409.09" y="805.66" width="92.98" height="31.66"/><rect class="cls-1" x="409.09" y="846.3" width="92.98" height="31.66"/><rect class="cls-1" x="409.09" y="886.94" width="92.98" height="31.66"/></g></g><g><rect class="cls-1" x="525.91" y="683.25" width="92.98" height="31.66"/><rect class="cls-1" x="525.91" y="723.9" width="92.98" height="31.66"/><rect class="cls-1" x="525.91" y="764.53" width="92.98" height="31.66"/><rect class="cls-1" x="525.91" y="805.66" width="92.98" height="31.66"/><rect class="cls-1" x="525.91" y="846.3" width="92.98" height="31.66"/><rect class="cls-1" x="525.91" y="886.94" width="92.98" height="31.66"/></g><g><g><rect class="cls-1" x="645.02" y="601.49" width="92.99" height="31.65"/><rect class="cls-1" x="645.02" y="642.13" width="92.99" height="31.66"/></g><g><rect class="cls-1" x="645.02" y="683.25" width="92.99" height="31.66"/><rect class="cls-1" x="645.02" y="723.9" width="92.99" height="31.66"/><rect class="cls-1" x="645.02" y="764.53" width="92.99" height="31.66"/><rect class="cls-1" x="645.02" y="805.66" width="92.99" height="31.66"/><rect class="cls-1" x="645.02" y="846.3" width="92.99" height="31.66"/><rect class="cls-1" x="645.02" y="886.94" width="92.99" height="31.66"/></g></g><g><rect class="cls-1" x="761.84" y="683.25" width="92.98" height="31.66"/><rect class="cls-1" x="761.84" y="723.9" width="92.98" height="31.66"/><rect class="cls-1" x="761.84" y="764.53" width="92.98" height="31.66"/><rect class="cls-1" x="761.84" y="805.66" width="92.98" height="31.66"/><rect class="cls-1" x="761.84" y="846.3" width="92.98" height="31.66"/><rect class="cls-1" x="761.84" y="886.94" width="92.98" height="31.66"/></g><g><g><rect class="cls-1" x="888.86" y="519.72" width="92.98" height="31.66"/><rect class="cls-1" x="888.86" y="560.85" width="92.98" height="31.66"/><rect class="cls-1" x="888.86" y="601.49" width="92.98" height="31.65"/><rect class="cls-1" x="888.86" y="642.13" width="92.98" height="31.66"/></g><g><rect class="cls-1" x="888.86" y="683.25" width="92.98" height="31.66"/><rect class="cls-1" x="888.86" y="723.9" width="92.98" height="31.66"/><rect class="cls-1" x="888.86" y="764.53" width="92.98" height="31.66"/><rect class="cls-1" x="888.86" y="805.66" width="92.98" height="31.66"/><rect class="cls-1" x="888.86" y="846.3" width="92.98" height="31.66"/><rect class="cls-1" x="888.86" y="886.94" width="92.98" height="31.66"/></g></g><g><g><rect class="cls-1" x="1005.68" y="438.44" width="92.99" height="31.66"/><rect class="cls-1" x="1005.68" y="479.08" width="92.99" height="31.67"/><rect class="cls-1" x="1005.68" y="519.72" width="92.99" height="31.66"/><rect class="cls-1" x="1005.68" y="560.85" width="92.99" height="31.66"/><rect class="cls-1" x="1005.68" y="601.49" width="92.99" height="31.65"/><rect class="cls-1" x="1005.68" y="642.13" width="92.99" height="31.66"/></g><g><rect class="cls-1" x="1005.68" y="683.25" width="92.99" height="31.66"/><rect class="cls-1" x="1005.68" y="723.9" width="92.99" height="31.66"/><rect class="cls-1" x="1005.68" y="764.53" width="92.99" height="31.66"/><rect class="cls-1" x="1005.68" y="805.66" width="92.99" height="31.66"/><rect class="cls-1" x="1005.68" y="846.3" width="92.99" height="31.66"/><rect class="cls-1" x="1005.68" y="886.94" width="92.99" height="31.66"/></g></g></g><g><g><g><rect class="cls-1" x="1124.25" y="438.44" width="92.99" height="31.66"/><rect class="cls-1" x="1124.25" y="479.08" width="92.99" height="31.67"/><rect class="cls-1" x="1124.25" y="519.72" width="92.99" height="31.66"/><rect class="cls-1" x="1124.25" y="560.85" width="92.99" height="31.66"/><rect class="cls-1" x="1124.25" y="601.49" width="92.99" height="31.65"/><rect class="cls-1" x="1124.25" y="642.13" width="92.99" height="31.66"/></g><g><rect class="cls-1" x="1124.25" y="683.25" width="92.99" height="31.66"/><rect class="cls-1" x="1124.25" y="723.9" width="92.99" height="31.66"/><rect class="cls-1" x="1124.25" y="764.53" width="92.99" height="31.66"/><rect class="cls-1" x="1124.25" y="805.66" width="92.99" height="31.66"/><rect class="cls-1" x="1124.25" y="846.3" width="92.99" height="31.66"/><rect class="cls-1" x="1124.25" y="886.94" width="92.99" height="31.66"/></g></g><g><rect class="cls-1" x="1241.07" y="683.25" width="92.99" height="31.66"/><rect class="cls-1" x="1241.07" y="723.9" width="92.99" height="31.66"/><rect class="cls-1" x="1241.07" y="764.53" width="92.99" height="31.66"/><rect class="cls-1" x="1241.07" y="805.66" width="92.99" height="31.66"/><rect class="cls-1" x="1241.07" y="846.3" width="92.99" height="31.66"/><rect class="cls-1" x="1241.07" y="886.94" width="92.99" height="31.66"/></g><g><g><rect class="cls-1" x="1360.19" y="601.49" width="92.98" height="31.65"/><rect class="cls-1" x="1360.19" y="642.13" width="92.98" height="31.66"/></g><g><rect class="cls-1" x="1360.19" y="683.25" width="92.98" height="31.66"/><rect class="cls-1" x="1360.19" y="723.9" width="92.98" height="31.66"/><rect class="cls-1" x="1360.19" y="764.53" width="92.98" height="31.66"/><rect class="cls-1" x="1360.19" y="805.66" width="92.98" height="31.66"/><rect class="cls-1" x="1360.19" y="846.3" width="92.98" height="31.66"/><rect class="cls-1" x="1360.19" y="886.94" width="92.98" height="31.66"/></g></g><g><rect class="cls-1" x="1477" y="683.25" width="92.99" height="31.66"/><rect class="cls-1" x="1477" y="723.9" width="92.99" height="31.66"/><rect class="cls-1" x="1477" y="764.53" width="92.99" height="31.66"/><rect class="cls-1" x="1477" y="805.66" width="92.99" height="31.66"/><rect class="cls-1" x="1477" y="846.3" width="92.99" height="31.66"/><rect class="cls-1" x="1477" y="886.94" width="92.99" height="31.66"/></g><g><g><rect class="cls-1" x="1604.03" y="519.72" width="92.99" height="31.66"/><rect class="cls-1" x="1604.03" y="560.85" width="92.99" height="31.66"/><rect class="cls-1" x="1604.03" y="601.49" width="92.99" height="31.65"/><rect class="cls-1" x="1604.03" y="642.13" width="92.99" height="31.66"/></g><g><rect class="cls-1" x="1604.03" y="683.25" width="92.99" height="31.66"/><rect class="cls-1" x="1604.03" y="723.9" width="92.99" height="31.66"/><rect class="cls-1" x="1604.03" y="764.53" width="92.99" height="31.66"/><rect class="cls-1" x="1604.03" y="805.66" width="92.99" height="31.66"/><rect class="cls-1" x="1604.03" y="846.3" width="92.99" height="31.66"/><rect class="cls-1" x="1604.03" y="886.94" width="92.99" height="31.66"/></g></g><g><g><rect class="cls-1" x="1720.85" y="438.44" width="92.99" height="31.66"/><rect class="cls-1" x="1720.85" y="479.08" width="92.99" height="31.67"/><rect class="cls-1" x="1720.85" y="519.72" width="92.99" height="31.66"/><rect class="cls-1" x="1720.85" y="560.85" width="92.99" height="31.66"/><rect class="cls-1" x="1720.85" y="601.49" width="92.99" height="31.65"/><rect class="cls-1" x="1720.85" y="642.13" width="92.99" height="31.66"/></g><g><rect class="cls-1" x="1720.85" y="683.25" width="92.99" height="31.66"/><rect class="cls-1" x="1720.85" y="723.9" width="92.99" height="31.66"/><rect class="cls-1" x="1720.85" y="764.53" width="92.99" height="31.66"/><rect class="cls-1" x="1720.85" y="805.66" width="92.99" height="31.66"/><rect class="cls-1" x="1720.85" y="846.3" width="92.99" height="31.66"/><rect class="cls-1" x="1720.85" y="886.94" width="92.99" height="31.66"/></g></g></g></g><g><polygon class="cls-1" points="920.4 424.42 914.06 422.44 928.93 347.36 931 347.49 920.4 424.42"/><path class="cls-1" d="M914.06,422.44s-21.02-8.14-22.28,6.99c-1.26,15.13,16.3,14.08,22.22,11.43,5.92-2.67,6.4-16.44,6.4-16.44l-3.17-.99-3.16-.99Z"/><path class="cls-1" d="M945.66,378.06c-16.89-5.26-18.29-15.17-18-23.93l3.33-6.65c-.02,.83-1.13,27.9,18.56,31.53h0c-1.37-.25-2.66-.57-3.89-.95Z"/></g><g><polygon class="cls-1" points="1650.28 424.42 1643.95 422.44 1658.81 347.36 1660.88 347.49 1650.28 424.42"/><path class="cls-1" d="M1643.95,422.44s-21.02-8.14-22.28,6.99c-1.26,15.13,16.3,14.08,22.22,11.43,5.91-2.67,6.39-16.44,6.39-16.44l-3.16-.99-3.16-.99Z"/><path class="cls-1" d="M1675.55,378.06c-16.89-5.26-18.3-15.17-18-23.93l3.32-6.65c-.02,.83-1.12,27.9,18.57,31.53h0c-1.37-.25-2.66-.57-3.89-.95Z"/></g><g><polygon class="cls-1" points="1311.31 537.63 1304.09 536.32 1314.41 450.63 1316.73 450.5 1311.31 537.63"/><path class="cls-1" d="M1304.09,536.32s-24.08-6.13-24.24,10.89c-.15,17.02,19.32,13.41,25.69,9.62,6.37-3.79,5.76-19.2,5.76-19.2l-3.61-.66-3.61-.66Z"/><path class="cls-1" d="M1335.6,482.49c-19.25-3.49-21.64-14.34-22.03-24.13l3.16-7.87c.04,.92,1.06,31.23,23.28,32.52h0c-1.54-.09-3.01-.27-4.41-.52Z"/></g><path class="cls-1" d="M594.66,389.92c1.53,.96,28.13,2.73,52.61-31.58l37.42,82.39s5.15,29.47-18.15,33.74c-12.97,2.37-14.25-11.64-8.95-22.43,4.22-8.61,14.23-14.29,14.23-14.29l-21.83-48.06s-16.83,23.67-36.93,23.41l20.1,51.51s8.95,27.77-12.13,35.31c-21.09,7.54-14.39-28.3,2.92-30.57l-29.29-79.43Z"/><path class="cls-1" d="M1482.75,480.84c1.19,.75,21.8,2.12,40.77-24.46l29,63.84s4,22.84-14.06,26.14c-10.05,1.83-11.05-9.01-6.94-17.38,3.27-6.66,11.03-11.07,11.03-11.07l-16.92-37.25s-13.03,18.35-28.61,18.14l15.58,39.91s6.93,21.52-9.41,27.36c-16.34,5.84-11.15-21.93,2.27-23.69l-22.7-61.56Z"/></g></svg>