<?xml version="1.0" encoding="UTF-8"?><svg id="Layer_1" xmlns="http://www.w3.org/2000/svg" viewBox="0 0 1920 1819.4"><defs><style>.cls-1{fill:#1b9768;}</style></defs><path class="cls-1" d="M1010.29,662.71c19.47,0,35.24-15.77,35.24-35.24s-15.77-35.24-35.24-35.24-35.24,15.78-35.24,35.24,15.77,35.24,35.24,35.24Z"/><path class="cls-1" d="M798,697.37c-7.07,7.05-7.07,18.47,0,25.51,7,7.04,18.41,7.04,25.48,0,7.04-7.04,7.04-18.45,0-25.51-7.07-7.03-18.47-7.03-25.48,0Z"/><path class="cls-1" d="M798,1096.5c-7.07,7.04-7.07,18.46,0,25.5,7,7.04,18.41,7.04,25.48,0,7.04-7.04,7.04-18.47,0-25.5-7.07-7.05-18.47-7.05-25.48,0Z"/><path class="cls-1" d="M1197.1,1096.5c-7.03,7.04-7.03,18.46,0,25.5,7.04,7.04,18.44,7.04,25.51,0,7.04-7.04,7.04-18.47,0-25.5-7.07-7.05-18.47-7.05-25.51,0Z"/><path class="cls-1" d="M1197.1,697.37c-7.03,7.05-7.03,18.47,0,25.51,7.04,7.04,18.44,7.04,25.51,0,7.04-7.04,7.04-18.45,0-25.51-7.07-7.03-18.47-7.03-25.51,0Z"/><path class="cls-1" d="M728.07,874.45c-19.47,0-35.24,15.77-35.24,35.24s15.77,35.24,35.24,35.24,35.24-15.78,35.24-35.24-15.77-35.24-35.24-35.24Z"/><path class="cls-1" d="M1010.29,1156.66c-19.47,0-35.24,15.78-35.24,35.25s15.77,35.24,35.24,35.24,35.24-15.78,35.24-35.24-15.77-35.25-35.24-35.25Z"/><path class="cls-1" d="M1292.52,874.45c-19.47,0-35.24,15.77-35.24,35.24s15.77,35.24,35.24,35.24,35.24-15.78,35.24-35.24-15.77-35.24-35.24-35.24Z"/><path class="cls-1" d="M1010.31,0C738.41,0,488.16,118.7,314.84,325.5l-95.2-36.69c-49.54-19.28-105.34-12.85-149.3,17.25C26.21,336.15,0,386.03,0,439.29v897.86c0,53.26,26.21,103.14,70.34,133.24,27.23,18.6,59.01,28.24,91.14,28.24,19.62,0,39.4-3.72,58.17-10.99l69.16-26.72c171.79,224.72,436.42,358.47,721.5,358.47,501.52,0,909.69-408.01,909.69-909.7S1511.82,0,1010.31,0Zm19.44,66.79c437.77,10.15,793.36,354.58,821.6,787.62-104.16-44.81-221.67-43.96-325.5,2.54-25.87-254.31-236.39-454.34-495.09-464.49-56.14-101.96-56.48-223.53-1.02-325.67Zm433.03,842.91c0,249.41-203.07,452.48-452.48,452.48-164.7,0-316.54-89.62-396.35-233.85-4.9-9.13-9.3-18.43-13.69-27.9v-381.8c1.86-4.06,3.55-7.95,5.58-12l6.77-13.02h.17c79.31-145.92,231.65-236.39,397.53-236.39,249.41,0,452.48,202.91,452.48,452.48ZM954.84,68.99c-44.81,104.5-43.63,222.18,3.21,326-142.04,14.37-271.05,86.23-357.79,198.68v-16.57c0-85.73-51.57-161.14-131.72-192.09l-88.77-34.49C527.73,183.12,731.65,83.36,954.84,68.99ZM307.74,1377.4l-20.8,13.7-90.97,35.17c-29.93,11.5-62.22,7.78-88.6-10.15-26.38-18.26-41.6-46.84-41.6-78.96V439.29c0-32.13,15.22-60.87,41.6-78.96,16.4-11.16,34.83-16.91,53.77-16.91,11.67,0,23.51,2.2,34.83,6.76l248.9,96.04c54.45,21.14,89.62,72.54,89.62,130.88v126.98c0,.17-.17,.34-.34,.51l.34,.17v494.58c0,58.34-35.17,109.57-89.62,130.71l-133.75,51.74c-1.18-1.52-2.37-2.87-3.38-4.4Zm683.29,375.04c-250.59-5.75-482.92-121.74-638.48-316.03l116-44.98c36.18-14.04,66.45-37.2,88.77-66.11,22.32-28.92,36.69-63.92,41.09-101.62,93.17,121.91,236.22,196.65,391.27,202.91,56.31,101.79,56.65,223.53,1.35,325.83Zm74.57-1.69c44.81-104.16,43.96-221.68-2.54-325.5,254.31-25.87,454.17-236.39,464.49-495.09,101.96-56.31,223.53-56.31,325.67-1.02-9.98,437.77-354.58,793.37-787.61,821.6Z"/><path class="cls-1" d="M991.03,1752.44c-250.59-5.75-482.92-121.74-638.48-316.03l116-44.98c36.18-14.04,66.45-37.2,88.77-66.11,22.32-28.92,36.69-63.92,41.09-101.62,93.17,121.91,236.22,196.65,391.27,202.91,56.31,101.79,56.65,223.53,1.35,325.83Z"/><path class="cls-1" d="M1851.35,854.41c-104.16-44.81-221.67-43.96-325.5,2.54-25.87-254.31-236.39-454.34-495.09-464.49-56.14-101.96-56.48-223.53-1.02-325.67,437.77,10.15,793.36,354.58,821.6,787.62Z"/><path class="cls-1" d="M1010.26,750.6c-87.7,0-159.08,71.38-159.08,159.09s71.38,159.09,159.08,159.09,159.15-71.38,159.15-159.09-71.38-159.09-159.15-159.09Zm0,252.38c-51.46,0-93.29-41.83-93.29-93.29s41.83-93.29,93.29-93.29,93.36,41.83,93.36,93.29-41.89,93.29-93.36,93.29Z"/></svg>