<?xml version="1.0" encoding="UTF-8"?><svg id="Layer_1" xmlns="http://www.w3.org/2000/svg" viewBox="0 0 1920 1580.07"><defs><style>.cls-1{fill:#1b9768;}.cls-2{fill:#35bc82;}</style></defs><path class="cls-1" d="M482.32,0h959.85C1462.53,0,1479.06,16.53,1479.06,36.88V799.07H445.43V36.88C445.43,16.53,461.96,0,482.32,0Z"/><path class="cls-1" d="M1527.7,1537c.29,1.94,.39,3.87,.39,5.81,0,20.23-16.84,37.26-38.33,37.26-16.84,0-31.65-10.65-36.68-26.33l-43.36-91.27H512.68l-77.14,98.53c-5.42,11.61-17.32,19.07-30.49,19.07-21.58,0-37.65-19.74-32.62-40.17l29.71-121.47-39.68-52.56,1218.76-11.32-73.17,61.46,19.65,120.99Z"/><path class="cls-1" d="M1473.12,741.89v480.81c0,23.01-20.94,41.67-46.78,41.67H496.1c-24.4,0-44.19-17.62-44.19-39.36v-483.12h1021.2Z"/><path class="cls-1" d="M505.25,1046.27c-4.16,74.34-41.66,136.38-41.66,136.38-8.61-2.56-17.22-5.13-25.55-7.95C60.33,1051.65-38.54,754.03,12.56,609.71c2.22-5.9,4.72-11.79,7.5-17.43,65.82-132.79,404.56-190.34,432.46-190.2,66.11,99.3,91.4,202.92,82.84,310.14,13.38,159.11-27.56,286.4-30.11,334.05Z"/><path class="cls-1" d="M1487.61,1172.9c-10,3.33-20.28,6.66-30.83,9.74,0,0-30.27-47.17-6.39-112.28v-.26c.83-2.56,1.95-5.13,3.05-7.95,6.11-14.35,5-52.04,.56-102.28-6.95-82.97-45.77-139.08-40.78-244.64-15-109.78,7.44-216.04,58.83-319.58,68.99,3.24,356.88,61.01,427.15,195.59,3.34,5.9,6.11,12.05,8.33,18.46,50.83,143.81-46.93,439.12-419.92,563.2Z"/><path class="cls-2" d="M451.99,1238.02c-2.9,5.71-5.9,10.65-9.49,15.29-1.45,1.74-2.9,3.39-4.55,5.03-25.07-9.29-49.07-19.45-71.62-30.39C47.9,1074.25-35.24,769.37,12.48,616.25c2.32-6.78,4.74-13.36,7.55-19.84,36.39-23.52,71.72-34.26,105.6-34.65,2.61,0,5.32,0,7.94,.19,10.94,.29,21.78,1.74,32.43,4.26l6.1,1.55c136.18,36.39,242.17,235.58,282.33,414.83,.58,2.23,1.06,4.55,1.55,6.78,6.78,31.17,11.52,61.75,14.03,90.59,.48,6.58,.97,12.97,1.36,19.26,3,56.43-3,105.31-19.36,138.79Z"/><path class="cls-2" d="M1589.54,1161.85v185.54c0,15.49-12.39,28.17-27.78,28.17H377.37c-15.39,0-28.07-12.68-28.07-28.17v-185.54c0-15.78,12.68-28.17,28.07-28.17H1561.77c15.39,0,27.78,12.39,27.78,28.17Z"/><path class="cls-2" d="M1487.61,1256.34c-4.73-5.24-8.89-11.36-12.22-18.35-13.06-26.51-21.39-60.31-25-98.18v-.29c-3.89-38.46-2.5-80.99,3.61-125.28,29.99-211.81,189.61-525.9,445.2-418.95,3.34,6.7,6.11,13.69,8.33,20.98,50.83,163.44-46.93,499.07-419.92,640.08Z"/></svg>