<?xml version="1.0" encoding="UTF-8"?><svg id="Layer_1" xmlns="http://www.w3.org/2000/svg" viewBox="0 0 1920 1133.21"><defs><style>.cls-1{fill:#80d4ab;}.cls-2{fill:#215f43;}.cls-3{fill:#224a37;}.cls-4{fill:#1b9768;}</style></defs><polygon class="cls-4" points="1283.82 0 580.39 29.81 78.29 1031.25 802.54 1118.69 1920 953.2 1283.82 0"/><polygon class="cls-4" points="1283.82 0 794.51 1000.9 1920 953.2 1283.82 0"/><polygon class="cls-1" points="1283.82 0 1309.02 594.72 1113.02 1074.34 796.2 1125.03 1283.82 0"/><polygon class="cls-1" points="1402.72 632.36 1466.66 972.42 1766.52 959.71 1402.72 632.36"/><polygon class="cls-4" points="1272.24 631.12 1239.75 1055.33 802.54 1125.03 1272.24 631.12"/><polygon class="cls-2" points="1283.82 0 1245.82 981.77 1466.66 972.42 1283.82 0"/><g><path class="cls-3" d="M63.75,916.07c2.95,5.3-8.82,17.49-26.3,27.24-17.48,9.75-34.04,13.36-37,8.06-2.95-5.3,8.82-17.49,26.3-27.24,17.48-9.75,34.04-13.36,37-8.06Z"/><polygon class="cls-3" points="102.28 1030.23 70.48 1031.83 19.63 940.68 44.57 926.77 102.28 1030.23"/></g><g><path class="cls-3" d="M779.98,1017.44c2.95,5.3-8.82,17.49-26.3,27.24-17.48,9.75-34.04,13.36-37,8.06-2.96-5.3,8.82-17.49,26.3-27.24,17.48-9.75,34.04-13.36,37-8.06Z"/><polygon class="cls-3" points="818.52 1131.61 786.71 1133.21 735.87 1042.05 760.8 1028.14 818.52 1131.61"/></g></svg>