<?xml version="1.0" encoding="UTF-8"?><svg id="Layer_1" xmlns="http://www.w3.org/2000/svg" viewBox="0 0 1536.62 1920"><defs><style>.cls-1{fill:#fff;}</style></defs><path class="cls-1" d="M74.36,1618.58c-27.11,0-49.08-21.98-49.08-49.08V350.5c0-27.1,21.97-49.08,49.08-49.08s49.08,21.98,49.08,49.08V1569.5c0,27.1-21.97,49.08-49.08,49.08Z"/><path class="cls-1" d="M998.82,1618.58c-27.11,0-49.08-21.98-49.08-49.08V350.5c0-27.1,21.97-49.08,49.08-49.08s49.08,21.98,49.08,49.08V1569.5c0,27.1-21.97,49.08-49.08,49.08Z"/><path class="cls-1" d="M536.59,1618.58c-27.11,0-49.08-21.98-49.08-49.08V350.5c0-27.1,21.97-49.08,49.08-49.08s49.08,21.98,49.08,49.08V1569.5c0,27.1-21.97,49.08-49.08,49.08Z"/><path class="cls-1" d="M1460.5,1618.58c-27.1,0-49.08-21.98-49.08-49.08V963.92c0-27.1,21.98-49.08,49.08-49.08s49.08,21.98,49.08,49.08v605.58c0,27.1-21.98,49.08-49.08,49.08Z"/><path class="cls-1" d="M1458.54,1009.08H74.36c-27.11,0-49.08-21.98-49.08-49.08s21.97-49.08,49.08-49.08H1458.54c27.1,0,49.08,21.98,49.08,49.08s-21.98,49.08-49.08,49.08Z"/><path class="cls-1" d="M1043.73,1721.69l-51.33,63.87c5.83-2.04,11.96-3.21,20.41-3.21,24.5,0,39.66,9.92,48.12,18.66,7,7.29,16.91,21.29,16.91,44.91,0,18.66-5.83,38.5-18.37,52.2-17.79,19.25-42.58,21.87-59.78,21.87s-43.74-1.75-62.99-22.75c-12.83-13.71-16.91-30.04-16.91-47.24,0-30.91,14.58-52.79,31.2-74.66l44.62-58.62,48.12,4.96Zm-22.16,152.81c5.25-4.96,10.21-13.13,10.21-25.66,0-11.37-4.67-18.95-10.21-23.91-7.29-6.42-15.75-8.17-23.33-8.17-8.75,0-16.91,2.04-23.62,8.46-3.79,3.5-9.91,11.37-9.91,24.79,0,9.04,2.62,17.5,9.91,24.2,5.54,5.25,13.71,9.04,23.62,9.04,11.67,0,19.25-4.96,23.33-8.75Z"/><path class="cls-1" d="M65.76,46.66h-27.7V8.75H110.67V203.27h-44.91V46.66Z"/><path class="cls-1" d="M468.06,62.41c1.75-16.33,9.04-33.54,19.25-44.04,14.29-14.87,33.25-18.37,49.28-18.37,23.91,0,41.12,7.29,51.04,17.21,8.16,7.87,14.87,20.71,14.87,39.66,0,9.62-1.75,18.08-7.87,26.54-4.08,5.83-9.04,9.62-14.58,12.25,8.16,2.92,16.91,8.46,22.16,15.75,5.83,7.87,9.04,20.12,9.04,30.62,0,14.87-5.83,31.79-19.54,44.33-16.62,15.16-35.58,16.91-51.33,16.91-18.96,0-39.66-2.92-56.87-20.12-11.08-11.37-19.54-28.58-21.58-48.12h44.91c.58,7.58,4.08,16.63,9.33,21.87,4.67,4.66,12.25,7.87,21.58,7.87,7.58,0,14.87-2.33,19.54-6.71,4.67-4.38,7.87-11.96,7.87-19.83s-3.79-14.87-8.46-18.66c-7-5.54-17.21-6.13-23.91-6.13h-3.5v-30.91h2.63c2.62,0,13.12-.29,19.54-5.54,4.08-3.5,7.29-9.63,7.29-17.5,0-6.71-2.62-12.25-6.42-15.75-3.5-3.21-9.33-5.83-16.62-5.83s-13.71,2.63-17.5,6.42c-4.08,4.37-6.71,11.96-7,18.08h-43.16Z"/><path class="cls-1" d="M1058.02,42.29h-65.62l-5.25,25.95c4.96-.87,11.08-1.46,16.04-1.46,21.87,0,38.79,7.87,49.58,18.95,8.75,8.75,17.79,23.92,17.79,46.95,0,25.08-10.79,41.12-19.83,50.16-17.79,17.5-39.08,20.41-58.91,20.41-18.37,0-40.24-2.33-64.74-21.29l10.21-41.7c5.25,5.83,12.54,12.25,18.66,16.04,8.17,5.25,17.79,8.45,29.45,8.45,10.21,0,20.71-2.33,27.7-7.87,6.13-4.67,11.37-13.13,11.37-24.5s-5.25-18.66-9.92-22.75c-2.33-2.04-11.96-10.21-32.37-10.21-16.33,0-30.04,4.96-39.66,10.21l19.83-105.28h95.66V42.29Z"/><path class="cls-1" d="M148.73,1915.63H0l58.33-63.58c10.21-11.37,25.66-30.33,31.79-39.66,4.37-7,11.66-19.54,11.66-32.95,0-7.29-2.92-14.87-7.58-19.25-3.79-3.5-10.21-5.54-17.79-5.54-8.46,0-14,2.92-17.79,7-5.25,5.83-8.17,16.33-8.17,23.91H5.54c1.46-16.92,8.17-36.16,20.12-48.7,9.33-9.92,25.95-20.12,53.66-20.12s43.45,11.66,50.45,18.37c10.5,10.5,18.08,26.54,18.08,46.66,0,17.21-5.25,29.74-14.58,42.87-8.46,11.67-18.66,21.58-31.2,33.54l-20.41,19.54h67.07v37.91Z"/><path class="cls-1" d="M594.04,1838.93h23.33v35.58h-23.33v36.74h-43.16v-36.74h-95.07v-25.66l85.74-132.11h52.49v122.19Zm-43.16,0v-75.53l-47.83,75.53h47.83Z"/><path class="cls-1" d="M1452.63,1716.73c24.79,0,40.25,8.16,49.58,16.92,8.16,7.87,16.91,21.87,16.91,43.45,0,12.25-2.63,27.41-15.17,39.66-6.71,6.42-16.33,12.25-27.12,14.87l59.78,79.62h-54.83l-52.49-76.7v76.7h-44.91v-194.52h68.24Zm-23.33,88.36h10.21c8.17,0,19.25-.87,26.83-8.46,3.21-3.21,7.29-9.33,7.29-18.95,0-11.08-5.25-16.92-9.04-19.83-7.29-5.54-18.96-6.12-24.79-6.12h-10.5v53.37Z"/></svg>