<?xml version="1.0" encoding="UTF-8"?><svg id="Layer_1" xmlns="http://www.w3.org/2000/svg" viewBox="0 0 1914.56 723.4"><defs></defs><path class="cls-1" d="M1904.63,394.67l-15.51-19.13c-1.41-37.27-3.07-81.08-9.67-116.08-2.94-15.61-5.11-24.02-13.66-29.59-6.18-4.03-16.16-7.06-25.15-9.84-20.57-58.97-47.37-115.01-79.56-167.38,15.45-2.7,32.04-7.31,47.39-16.34,6.74-3.97,8.1-10.15-1.42-11.09l-101.24-9.93C1435.43-11.24,1051.52,.4,829.68,22.58c-46.97,4.7-92.3,20.13-131.95,45.76-58.12,37.57-120.94,88.4-184.46,143.38-277.9,9.21-455.05,20.02-481.08,80.32-7.83,18.15-12.08,55.12-13.2,89.64l-5.31,7.62c-6.41,9.2-9.21,20.44-7.85,31.57l3.73,30.66c.6,4.96-.18,9.99-2.26,14.53l-4.86,10.62c-1.8,3.93-2.63,8.23-2.42,12.55l1.23,25.86c1.79,37.55,51.27,55.98,111.52,61.51l17.54,1.61c-.2-3.9-.3-7.83-.3-11.78,0-51.42,16.89-98.89,45.41-137.18,19-25.5,47.83-42.04,79.43-45.61,46.16-5.21,92.72-6.02,139.01-2.44,24.12,1.86,46.5,13.74,60.91,33.17,31.51,42.5,50.15,95.09,50.15,152.06,0,10.38-.65,20.6-1.85,30.65h778.36c-1.34-10.03-2.1-20.25-2.1-30.65,0-51.42,16.89-98.89,45.41-137.18,19-25.5,47.83-42.04,79.43-45.61,46.16-5.21,92.72-6.02,139-2.44,24.12,1.87,46.5,13.74,60.91,33.17,31.51,42.5,50.15,95.09,50.15,152.06,0,10.45-.66,20.74-1.88,30.86l158.8-22.88c58.89-8.49,89.23-32.59,92.75-61.51l10.33-84.84c1.46-11.97-2.01-24.02-9.6-33.39ZM939.86,237.14l-293.41,8.46,12.88-96.53c18.33-20.15,45.28-39.55,62.79-50.98,36.41-23.78,69.47-35.72,111.3-39.9,43.64-4.36,93.09-8.25,146.28-11.52l-39.83,190.48Zm331.89-9.57l-244.12,7.04,16.99-191.54c75.41-3.71,156.28-6.14,237.77-6.91l-10.63,191.41Zm14.39-.41l6.42-191.07c9.8-.08,19.59-.14,29.39-.17l28.65,189.38-64.47,1.86Zm366.19-34.7c-9.17,5.97-18.69,11.46-28.53,16.41-11.87,5.99-24.91,9.27-38.2,9.66l-142.57,4.11-61.91-186.57c69.89,.56,138.78,2.5,203.6,6.06,18.26,1,30.65,8.67,40.38,29.35,14.61,31.09,26.84,63.91,35.79,97.33,3.26,12.18,1.65,17.01-8.55,23.65Z"/><path class="cls-1" d="M181.96,287.87H80.96c-10.27,0-23.16,8.62-31.83,35.37-8.6,26.55-10.4,44.41-10.4,44.41,23.17-2.34,70.79-6.46,90.38-6.23,10.24,.12,20.72-3.66,27.39-11.39,11.15-12.91,16.68-22.83,35.12-46.01,7.83-9.84,8.25-16.16-9.66-16.16Z"/><circle class="cls-1" cx="317.47" cy="574.02" r="149.38" transform="translate(-312.91 392.61) rotate(-45)"/><circle class="cls-1" cx="1466.78" cy="574.02" r="149.38" transform="translate(23.71 1205.3) rotate(-45)"/><path class="cls-1" d="M1838.79,252.26c-5.27-.48-6.68-.59-10.58-.7-10.13-.28-14.24,4.41-14.24,14.72,0,27.08-6.56,69.91-14.99,97.65,16.84,0,54-1.24,68.77-3.32,.02-25.3-1.78-62.12-7.52-86.05-3.29-13.72-6.46-20.94-21.44-22.3Z"/></svg>