<?xml version="1.0" encoding="UTF-8"?><svg id="Layer_1" xmlns="http://www.w3.org/2000/svg" viewBox="0 0 1920 573.57"><defs><style>.cls-1{fill:#1b9768;}</style></defs><path class="cls-1" d="M1911.45,319.22l-20.67-22.96c-6.11-6.79-9.61-15.54-9.87-24.68l-2.76-97.24c-.23-8.17-6.45-14.92-14.58-15.82l-163.14-18.04c-84.76-41.39-172.94-76.84-264.02-105.8-29.85-9.49-60.54-16.14-91.64-19.97-139.44-17.15-280.38-19.3-420.2-6.47-54.86,5.03-108.39,19.91-157.76,44.36-71.83,35.59-141.15,75.46-207.66,119.27-254.51,4.13-463.33,42.41-522.33,93.03-5.21,4.47-8.56,10.7-9.6,17.48l-5.95,39.01-5.4,6.99c-6.22,8.04-9.41,18.02-9.02,28.18l2.05,53.05c.22,5.71-.97,11.38-3.45,16.52l-3.6,7.44c-1.72,3.54-2.27,7.54-1.59,11.42l3.47,19.84c1.03,5.86,5.73,10.38,11.62,11.17l104.91,14.06v-51.24c0-90.85,72.27-166.58,163.11-167.76,92.3-1.2,167.5,73.27,167.5,165.29v61.49h931.24v-59.02c0-90.85,72.27-166.58,163.11-167.75,92.3-1.2,167.5,73.27,167.5,165.29v46.86l164.24-31.77c19-3.68,33.38-19.31,35.47-38.55l7.36-67.79c1.02-9.42-2.02-18.83-8.36-25.88Zm-427.09-228.89c17.18,9.98,21.7,32.76,9.7,48.58l-19.51,25.73c-32.85,1.15-69.38,2.42-110,3.69l6.92-118.7c49.71,9.7,88.08,26.28,112.9,40.7Zm-497.04,86.55c-102.27,2.43-204.35,5.7-306.22,9.85l7.65-58.43c30.16-17.03,60.71-33.28,91.53-48.55,45.77-22.68,95.26-36.59,147.08-41.34,34.73-3.19,69.57-5.43,104.45-6.73l-44.48,145.2Zm87.48-146.3c88.98-1.35,178.08,3.36,266.28,14.2,5.67,.7,11.18,1.52,16.6,2.4l-10.27,121.68c-79.15,2.41-173.1,4.79-284.51,6.38l11.89-144.66Z"/><path class="cls-1" d="M1840.68,183.92c-20.22-1.48-40.56-2.38-61.01-3.02-11.77-.37-16.17,9.28-6.65,17.18,20.95,17.37,40.85,35.89,60.44,54.65,6.06,5.81,14.14,8.98,22.54,8.83,3.27-.06,6.54-.1,9.82-.14,.01-21.01-1.92-41.71-6.68-61.58-2.73-11.4-5.89-14.99-18.46-15.91Z"/><path class="cls-1" d="M142.05,255.51c-27.56,1.36-51.84,5.29-75.97,11.54-8.62,2.23-15.77,9.23-20.21,18.03-8.58,17.01-9.74,31.36-9.74,31.36,16.2-1.99,29.35-1.98,46.03-1.78,8.72,.1,17.29-2.44,24.38-7.52,15.19-10.88,29.54-22.87,42.86-35.89,7.94-7.76,3.52-16.27-7.35-15.73Z"/><circle class="cls-1" cx="285.59" cy="440.15" r="133.42" transform="translate(-227.59 330.86) rotate(-45)"/><circle class="cls-1" cx="1547.43" cy="440.15" r="133.42" transform="translate(142 1223.12) rotate(-45)"/></svg>