<?xml version="1.0" encoding="UTF-8"?><svg id="Layer_1" xmlns="http://www.w3.org/2000/svg" viewBox="0 0 1635.69 1920"><defs><style>.cls-1{fill:#1b9768;}</style></defs><g><circle class="cls-1" cx="831.04" cy="303.12" r="303.12"/><circle class="cls-1" cx="831.04" cy="303.12" r="257.26"/><path class="cls-1" d="M965.63,83.55c25.62,40,40.47,87.55,40.47,138.57,0,142.08-115.18,257.26-257.26,257.26-49.34,0-95.44-13.9-134.59-37.99,45.72,71.38,125.73,118.69,216.78,118.69,142.08,0,257.26-115.18,257.26-257.26,0-92.73-49.07-174-122.66-219.27Z"/><path class="cls-1" d="M618.84,326.66c0-125.42,101.67-227.09,227.09-227.09,73.31,0,138.49,34.75,180.01,88.66-39.21-68.08-112.71-113.91-196.92-113.91-125.42,0-227.09,101.67-227.09,227.09,0,52.11,17.56,100.11,47.08,138.43-19.19-33.32-30.17-71.97-30.17-113.18Z"/></g><g><path class="cls-1" d="M509.25,1920h-116.98c-21.16,0-38.32-17.15-38.32-38.32l-32.27-220.24c0-21.16,17.15-38.32,38.31-38.32h181.51c21.16,0,38.32,17.15,38.32,38.32l-32.27,220.24c0,21.16-17.15,38.32-38.31,38.32Z"/><path class="cls-1" d="M1298.2,1920h-116.98c-21.16,0-38.32-17.15-38.32-38.32l-32.27-220.24c0-21.16,17.15-38.32,38.32-38.32h181.51c21.16,0,38.31,17.15,38.31,38.32l-32.27,220.24c0,21.16-17.15,38.32-38.32,38.32Z"/><path class="cls-1" d="M1529.46,1290.74c0-8.89-.18-17.72-.53-26.53-2.45-62.38-13.68-122.94-33.5-179.98-80.88-232.53-305.01-406.57-664.58-406.57-140.34,0-260.09,26.56-358.75,72.81-113.72,53.29-199.41,132.72-256.34,227.74-34.35,57.36-58.19,120.46-71.37,186.89-1.56,7.77-2.95,15.63-4.19,23.51-5.32,33.38-7.98,67.5-7.98,102.11,0,110.62,35.6,214.18,97.57,302.83,27.65,39.55,60.58,76.15,97.92,109.09,16.66,14.71,34.21,28.65,52.55,41.8,10.84,7.83,22,15.33,33.41,22.54,4.58,2.89,9.19,5.76,13.82,8.57,2.33,1.39,4.67,2.78,7,4.14,16.42,9.69,33.35,18.76,50.78,27.15,2.45,1.24,4.96,2.42,7.47,3.57,10.01,4.73,20.17,9.25,30.48,13.53,10.19,4.28,20.53,8.36,31.02,12.2,5.41,1.98,10.84,3.9,16.34,5.76,5.38,1.83,10.75,3.6,16.19,5.32,7.95,2.54,15.98,4.93,24.07,7.21,2.6,.74,5.2,1.45,7.8,2.16,.5,.15,.97,.27,1.48,.41,4.52,1.21,9.01,2.36,13.56,3.51,.91,.24,1.83,.44,2.78,.68,2.63,.65,5.29,1.3,7.95,1.92,11.46,2.69,23.04,5.14,34.74,7.33,5.73,1.09,11.49,2.1,17.25,3.07,19.5,3.22,39.26,5.76,59.31,7.59,1.24,.12,2.48,.24,3.72,.32,2.78,.24,5.55,.47,8.36,.68,3.55,.27,7.06,.53,10.6,.74,2.51,.15,5.08,.3,7.59,.44,.5,.03,1.03,.06,1.54,.09,1.92,.09,3.87,.21,5.79,.27,1.21,.06,2.39,.12,3.6,.15,2.3,.12,4.61,.21,6.94,.27,4.02,.12,8.07,.24,12.11,.29,.94,.03,1.89,.06,2.84,.03,4.02,.09,8.03,.12,12.05,.12,4.4,0,8.8-.03,13.17-.12,1.74,0,3.51-.03,5.26-.09,2.87-.06,5.73-.15,8.57-.24,3.16-.09,6.32-.21,9.45-.35,2.81-.12,5.61-.27,8.42-.41,5.55-.3,11.11-.65,16.6-1.06,3.19-.24,6.35-.5,9.54-.77,3.1-.27,6.2-.53,9.3-.83,2.36-.24,4.7-.47,7.03-.74,1.98-.21,3.96-.41,5.91-.65,2.13-.24,4.28-.47,6.41-.74,2.25-.27,4.49-.53,6.74-.86,.18,0,.33-.03,.5-.06,2.01-.27,4.05-.53,6.05-.83,5.02-.68,10.04-1.42,15.01-2.22,3.46-.53,6.88-1.09,10.31-1.68,4.72-.8,9.42-1.65,14.09-2.54,1.8-.35,3.6-.68,5.4-1.03,6.18-1.21,12.29-2.48,18.37-3.81,1.95-.44,3.9-.89,5.85-1.33,7.74-1.77,15.39-3.63,23.01-5.64,2.3-.59,4.61-1.21,6.91-1.83,24.19-6.53,47.76-14.15,70.72-22.77,5.08-1.92,10.13-3.9,15.15-5.91,2.04-.8,4.05-1.62,6.05-2.42v-.03c10.49-4.31,20.8-8.8,30.96-13.56,2.27-1.03,4.52-2.1,6.76-3.16,24.25-11.58,47.62-24.34,69.95-38.22,1.95-1.21,3.93-2.45,5.88-3.69,.41-.24,.8-.5,1.18-.77,1.75-1.09,3.46-2.22,5.17-3.34,2.01-1.27,3.99-2.57,5.94-3.87,2.07-1.36,4.13-2.75,6.17-4.14,9.18-6.23,18.16-12.67,26.94-19.29,1.95-1.45,3.84-2.89,5.76-4.37,4.28-3.28,8.48-6.59,12.61-9.95,1.92-1.54,3.78-3.07,5.67-4.64,2.01-1.62,3.99-3.28,5.97-4.96,1.92-1.65,3.87-3.31,5.79-4.96,11.52-9.98,22.66-20.29,33.32-30.96,1.57-1.51,3.13-3.1,4.67-4.67,1.98-2.01,3.93-4.05,5.85-6.08,1.74-1.8,3.46-3.63,5.17-5.46,3.43-3.63,6.76-7.33,10.07-11.08,1.65-1.86,3.31-3.72,4.93-5.61,1.62-1.86,3.25-3.75,4.87-5.64,6.44-7.59,12.67-15.3,18.64-23.16,9.01-11.76,17.52-23.84,25.55-36.16,2.66-4.11,5.29-8.27,7.86-12.44,1.21-1.98,2.45-3.99,3.66-6,.06-.12,.15-.27,.21-.38,16.3-27.23,30.16-55.71,41.35-85.16,.89-2.24,1.74-4.55,2.54-6.82,1.68-4.58,3.31-9.16,4.81-13.77,5.43-16.13,10.04-32.55,13.79-49.21,.53-2.39,1.06-4.79,1.57-7.15,.5-2.39,1-4.78,1.48-7.21,.98-4.79,1.86-9.6,2.63-14.44,1.21-7.03,2.25-14.09,3.1-21.21,.32-2.66,.65-5.35,.94-8.04,.56-4.9,1.04-9.84,1.39-14.8,.38-4.93,.71-9.89,.94-14.89,.12-2.48,.24-4.96,.33-7.47,0,.01-.01,.02-.02,.03,.23-6.02,.38-12.04,.38-18.11Zm-477.96-498.61l-237.67,24.04h-.03c-104.12,3.57-176.46,30.19-177.61,30.63l-20.5-54.35c8.45-3.16,209.16-77.01,435.81-.33Zm-626.13,359.1c0,23.28-18.87,42.15-42.15,42.15s-42.18-18.87-42.18-42.15,18.87-42.18,42.18-42.18,42.15,18.88,42.15,42.18Z"/><path class="cls-1" d="M321.69,1593.99l-107.61-.47c-93.14,4.34-134.29-21.27-152.2-87.07L2.91,1289.81c-12.01-44.13,14.27-90.07,58.4-102.09l133.63-36.37c65.8-17.91,134.29,21.27,152.2,87.07l54.7,190.15c17.91,65.8-14.36,147.5-80.16,165.41Z"/><path class="cls-1" d="M546.18,797.33c-1.87-1.56-189.08-155.06-400.94-77.53-2.3,.84-3.92,2.91-4.2,5.34-.27,2.42-24.35,243.24,208.2,364.59,.95,.49,1.97,.73,2.98,.73,2.09,0,4.12-1.01,5.36-2.85l189.81-281.73c1.85-2.74,1.32-6.43-1.21-8.56Z"/><path class="cls-1" d="M1612.53,1002.11c-14.69-4.59-29.89,1.2-37.84,14.34-40.87,67.59-113.73,80.67-144.84,86.25-11.5,2.07-16.75,3.01-21.84,7.29-6.13,5.15-8.46,13.54-5.87,21.11l51.17,149.23c1.73,5.04,5.45,9.13,10.28,11.34,2.55,1.16,5.29,1.75,8.04,1.75,2.46,0,4.93-.47,7.27-1.42,126.18-51.09,152.36-182.65,156.74-256.52,.91-15.38-8.38-28.78-23.1-33.36Z"/><path class="cls-1" d="M1051.49,792.13l-18.61,55c-72.31-24.46-142.23-31.93-202.69-31.34-1.65,.03-3.28,.03-4.9,.09-3.87,.06-7.68,.18-11.46,.3l237.67-24.04Z"/><path class="cls-1" d="M330.37,1704.94c126.9,110.74,304.22,179.54,500.47,179.54,378.71,0,687.01-256.12,698.25-575.66-382.98,511.88-949.26,449.17-1198.72,396.12Z"/><path class="cls-1" d="M28.78,1308.82s-38.06-95.48,111.43-120.19c0,0-85.58,42.16-111.43,120.19Z"/><path class="cls-1" d="M162.63,740.92s54.76-30.42,99.38-22.31c0,0-68.95,56.79-40.56,227.14,0,0-58.81-93.29-58.81-204.84Z"/><path class="cls-1" d="M1051.49,792.13l-18.61,55c-72.31-24.46-142.23-31.93-202.69-31.34-1.65,.03-3.28,.06-4.9,.09-3.87,.06-7.68,.18-11.46,.3l237.67-24.04Z"/></g></svg>