<?xml version="1.0" encoding="UTF-8"?><svg id="Layer_1" xmlns="http://www.w3.org/2000/svg" xmlns:xlink="http://www.w3.org/1999/xlink" viewBox="0 0 1920 1103.15"><defs><style>.cls-1{clip-path:url(#clippath);}.cls-2{fill:#1b9768;}.cls-3{clip-path:url(#clippath-1);}</style><clipPath id="clippath"><path class="cls-2" d="M1413.16,129.56c-79.25-45.51-167.1-81.06-259.08-103.02C1062.16,4.46,966.28-3.89,872.3,1.67c-94.01,5.52-186.58,24.94-272.25,56.53-85.75,31.49-164.51,74.95-233.07,125.88-17.22,12.62-33.63,26-49.58,39.47-15.9,13.56-31.07,27.58-45.71,41.76-3.6,3.6-7.19,7.19-10.78,10.78l-5.35,5.37-5.21,5.48c-3.46,3.65-6.91,7.28-10.35,10.91-3.35,3.7-6.69,7.39-10.03,11.07l-4.97,5.52-4.84,5.6c-3.21,3.73-6.41,7.45-9.6,11.16-3.1,3.78-6.2,7.54-9.28,11.29-1.53,1.88-3.07,3.75-4.59,5.62-1.49,1.9-2.98,3.8-4.46,5.7-2.96,3.79-5.91,7.57-8.85,11.34-2.85,3.83-5.7,7.65-8.53,11.45-1.41,1.9-2.82,3.8-4.23,5.69-1.36,1.93-2.73,3.85-4.09,5.77-2.71,3.83-5.42,7.65-8.11,11.46-10.49,15.42-20.59,30.71-29.82,46.16-18.63,30.78-34.8,61.46-48.51,91.63-27.55,60.31-45.87,118.09-57.76,169.89-5.93,25.92-10.41,50.33-13.59,73-.86,5.65-1.46,11.23-2.17,16.66-.34,2.72-.68,5.4-1.01,8.06-.27,2.66-.53,5.3-.8,7.9-.51,5.2-1.01,10.28-1.5,15.24-.37,4.96-.74,9.81-1.09,14.52-2.68,37.7-2.36,67.3-1.72,87.4,.17,10.05,.77,17.75,.98,22.93,.27,5.18,.41,7.85,.41,7.85,0,0,.21-2.67,.61-7.84,.45-5.17,.85-12.84,1.98-22.8,1.94-19.92,5.44-49.1,12.84-85.51,.94-4.54,1.91-9.21,2.9-13.99,1.1-4.76,2.23-9.63,3.39-14.62,.58-2.49,1.17-5.01,1.77-7.56,.66-2.53,1.33-5.09,2-7.68,1.38-5.17,2.65-10.47,4.2-15.83,5.92-21.48,13.29-44.39,22.18-68.4,17.78-47.99,42.28-100.3,75.23-153.08,16.41-26.41,35.07-52.82,55.84-78.82,10.3-13.06,21.37-25.84,32.74-38.62,2.9-3.14,5.82-6.3,8.74-9.46l4.39-4.75,4.52-4.66c3.01-3.11,6.04-6.23,9.07-9.36,3.11-3.06,6.22-6.13,9.35-9.21l4.69-4.62,4.81-4.53c3.21-3.01,6.44-6.04,9.67-9.07,3.3-2.96,6.61-5.92,9.94-8.9l4.99-4.46,5.1-4.36c3.41-2.9,6.83-5.81,10.26-8.73,3.5-2.84,7-5.68,10.52-8.53l5.28-4.27,5.39-4.16c3.6-2.77,7.21-5.55,10.82-8.33,14.66-10.89,29.68-21.54,45.24-31.64,15.61-10.02,31.48-19.87,47.96-28.91,65.62-36.61,137.99-64.8,213.41-81.79,75.4-17.08,153.72-22.88,230.66-17.34,76.97,5.54,151.97,22.41,221.12,49,55.35,21.2,106.89,48.57,153.41,80.18l202.56-156.67c-11.86-7.53-23.89-14.88-36.23-21.87Z"/></clipPath><clipPath id="clippath-1"><path class="cls-2" d="M1567.5,924.49c0,.6-.06,1.08-.08,1.61-.06,1.04-.12,2.05-.17,3.03-.1,1.97-.2,3.83-.29,5.6-.94,18.44-1.44,28.28-1.44,28.28l354.48-4.49s-.92-11.53-2.64-33.14c-.28-3.24-.58-6.67-.9-10.29-.16-1.81-.33-3.66-.5-5.56-.09-.94-.18-1.88-.27-2.84-.1-.9-.21-1.8-.32-2.72-.87-7.33-1.82-15.33-2.85-23.98-1.24-8.62-2.5-17.89-4.04-27.74-.83-4.92-1.69-9.99-2.57-15.21-.45-2.61-.9-5.25-1.36-7.93-.51-2.67-1.04-5.39-1.56-8.13-1.08-5.49-2.18-11.12-3.31-16.89-1.21-5.76-2.55-11.65-3.88-17.67-.67-3.01-1.35-6.05-2.04-9.13-.76-3.06-1.52-6.16-2.3-9.3-1.58-6.26-3.08-12.67-4.85-19.15-6.86-26-15.43-53.77-25.84-82.9-20.83-58.23-49.72-121.85-88.85-186.16-19.5-32.18-41.69-64.41-66.46-96.18-12.3-15.95-25.49-31.59-39.09-47.21-3.47-3.85-6.95-7.71-10.44-11.59-1.75-1.93-3.5-3.87-5.25-5.81-1.8-1.9-3.6-3.81-5.4-5.72-3.61-3.81-7.23-7.63-10.86-11.46-3.71-3.75-7.44-7.52-11.18-11.29-1.87-1.88-3.75-3.77-5.63-5.66-1.92-1.85-3.83-3.71-5.76-5.56-3.85-3.7-7.72-7.41-11.6-11.13-3.96-3.63-7.93-7.28-11.91-10.94-1.99-1.82-3.99-3.64-5.99-5.47-2.04-1.79-4.08-3.58-6.12-5.37-4.09-3.57-8.2-7.14-12.32-10.73-4.19-3.49-8.4-7-12.62-10.51-2.11-1.75-4.23-3.5-6.34-5.25-2.15-1.71-4.31-3.42-6.47-5.13-4.33-3.41-8.67-6.83-13.02-10.26-4.13-3.15-8.32-6.27-12.51-9.39l-139.72,221.23,.75,.81c2.76,2.99,5.5,5.96,8.24,8.93,2.66,3.03,5.32,6.06,7.97,9.07l3.96,4.51,3.84,4.59c2.55,3.05,5.09,6.09,7.63,9.12,2.46,3.09,4.91,6.17,7.36,9.24l3.65,4.59,3.53,4.66c2.35,3.09,4.69,6.18,7.02,9.25,2.25,3.13,4.5,6.24,6.74,9.35l3.35,4.63,3.22,4.71c2.14,3.12,4.28,6.23,6.41,9.33,8.26,12.57,16.24,24.99,23.46,37.56,14.63,25.01,27.27,49.87,37.89,74.28,21.37,48.77,35.29,95.24,44.13,136.8,4.4,20.8,7.69,40.35,9.93,58.5,.62,4.52,1,9,1.52,13.34,.24,2.17,.48,4.32,.72,6.45,.18,2.13,.35,4.24,.52,6.33,.35,4.16,.68,8.23,1.01,12.19,.23,3.97,.46,7.84,.68,11.62,.11,1.88,.22,3.74,.33,5.57,.06,1.84,.12,3.65,.17,5.43,.12,3.56,.24,7.02,.35,10.38,.07,6.71,.13,13,.19,18.85-.1,5.85-.19,11.26-.27,16.21,0,.62-.02,1.23-.03,1.83Z"/></clipPath></defs><g><path class="cls-2" d="M1413.16,129.56c-79.25-45.51-167.1-81.06-259.08-103.02C1062.16,4.46,966.28-3.89,872.3,1.67c-94.01,5.52-186.58,24.94-272.25,56.53-85.75,31.49-164.51,74.95-233.07,125.88-17.22,12.62-33.63,26-49.58,39.47-15.9,13.56-31.07,27.58-45.71,41.76-3.6,3.6-7.19,7.19-10.78,10.78l-5.35,5.37-5.21,5.48c-3.46,3.65-6.91,7.28-10.35,10.91-3.35,3.7-6.69,7.39-10.03,11.07l-4.97,5.52-4.84,5.6c-3.21,3.73-6.41,7.45-9.6,11.16-3.1,3.78-6.2,7.54-9.28,11.29-1.53,1.88-3.07,3.75-4.59,5.62-1.49,1.9-2.98,3.8-4.46,5.7-2.96,3.79-5.91,7.57-8.85,11.34-2.85,3.83-5.7,7.65-8.53,11.45-1.41,1.9-2.82,3.8-4.23,5.69-1.36,1.93-2.73,3.85-4.09,5.77-2.71,3.83-5.42,7.65-8.11,11.46-10.49,15.42-20.59,30.71-29.82,46.16-18.63,30.78-34.8,61.46-48.51,91.63-27.55,60.31-45.87,118.09-57.76,169.89-5.93,25.92-10.41,50.33-13.59,73-.86,5.65-1.46,11.23-2.17,16.66-.34,2.72-.68,5.4-1.01,8.06-.27,2.66-.53,5.3-.8,7.9-.51,5.2-1.01,10.28-1.5,15.24-.37,4.96-.74,9.81-1.09,14.52-2.68,37.7-2.36,67.3-1.72,87.4,.17,10.05,.77,17.75,.98,22.93,.27,5.18,.41,7.85,.41,7.85,0,0,.21-2.67,.61-7.84,.45-5.17,.85-12.84,1.98-22.8,1.94-19.92,5.44-49.1,12.84-85.51,.94-4.54,1.91-9.21,2.9-13.99,1.1-4.76,2.23-9.63,3.39-14.62,.58-2.49,1.17-5.01,1.77-7.56,.66-2.53,1.33-5.09,2-7.68,1.38-5.17,2.65-10.47,4.2-15.83,5.92-21.48,13.29-44.39,22.18-68.4,17.78-47.99,42.28-100.3,75.23-153.08,16.41-26.41,35.07-52.82,55.84-78.82,10.3-13.06,21.37-25.84,32.74-38.62,2.9-3.14,5.82-6.3,8.74-9.46l4.39-4.75,4.52-4.66c3.01-3.11,6.04-6.23,9.07-9.36,3.11-3.06,6.22-6.13,9.35-9.21l4.69-4.62,4.81-4.53c3.21-3.01,6.44-6.04,9.67-9.07,3.3-2.96,6.61-5.92,9.94-8.9l4.99-4.46,5.1-4.36c3.41-2.9,6.83-5.81,10.26-8.73,3.5-2.84,7-5.68,10.52-8.53l5.28-4.27,5.39-4.16c3.6-2.77,7.21-5.55,10.82-8.33,14.66-10.89,29.68-21.54,45.24-31.64,15.61-10.02,31.48-19.87,47.96-28.91,65.62-36.61,137.99-64.8,213.41-81.79,75.4-17.08,153.72-22.88,230.66-17.34,76.97,5.54,151.97,22.41,221.12,49,55.35,21.2,106.89,48.57,153.41,80.18l202.56-156.67c-11.86-7.53-23.89-14.88-36.23-21.87Z"/><g class="cls-1"><polygon class="cls-2" points="-.51 270.83 759.12 -3.89 1449.39 -3.89 1449.39 441.22 12.78 960.76 -.51 960.76 -.51 270.83"/></g></g><g><path class="cls-2" d="M1567.5,924.49c0,.6-.06,1.08-.08,1.61-.06,1.04-.12,2.05-.17,3.03-.1,1.97-.2,3.83-.29,5.6-.94,18.44-1.44,28.28-1.44,28.28l354.48-4.49s-.92-11.53-2.64-33.14c-.28-3.24-.58-6.67-.9-10.29-.16-1.81-.33-3.66-.5-5.56-.09-.94-.18-1.88-.27-2.84-.1-.9-.21-1.8-.32-2.72-.87-7.33-1.82-15.33-2.85-23.98-1.24-8.62-2.5-17.89-4.04-27.74-.83-4.92-1.69-9.99-2.57-15.21-.45-2.61-.9-5.25-1.36-7.93-.51-2.67-1.04-5.39-1.56-8.13-1.08-5.49-2.18-11.12-3.31-16.89-1.21-5.76-2.55-11.65-3.88-17.67-.67-3.01-1.35-6.05-2.04-9.13-.76-3.06-1.52-6.16-2.3-9.3-1.58-6.26-3.08-12.67-4.85-19.15-6.86-26-15.43-53.77-25.84-82.9-20.83-58.23-49.72-121.85-88.85-186.16-19.5-32.18-41.69-64.41-66.46-96.18-12.3-15.95-25.49-31.59-39.09-47.21-3.47-3.85-6.95-7.71-10.44-11.59-1.75-1.93-3.5-3.87-5.25-5.81-1.8-1.9-3.6-3.81-5.4-5.72-3.61-3.81-7.23-7.63-10.86-11.46-3.71-3.75-7.44-7.52-11.18-11.29-1.87-1.88-3.75-3.77-5.63-5.66-1.92-1.85-3.83-3.71-5.76-5.56-3.85-3.7-7.72-7.41-11.6-11.13-3.96-3.63-7.93-7.28-11.91-10.94-1.99-1.82-3.99-3.64-5.99-5.47-2.04-1.79-4.08-3.58-6.12-5.37-4.09-3.57-8.2-7.14-12.32-10.73-4.19-3.49-8.4-7-12.62-10.51-2.11-1.75-4.23-3.5-6.34-5.25-2.15-1.71-4.31-3.42-6.47-5.13-4.33-3.41-8.67-6.83-13.02-10.26-4.13-3.15-8.32-6.27-12.51-9.39l-139.72,221.23,.75,.81c2.76,2.99,5.5,5.96,8.24,8.93,2.66,3.03,5.32,6.06,7.97,9.07l3.96,4.51,3.84,4.59c2.55,3.05,5.09,6.09,7.63,9.12,2.46,3.09,4.91,6.17,7.36,9.24l3.65,4.59,3.53,4.66c2.35,3.09,4.69,6.18,7.02,9.25,2.25,3.13,4.5,6.24,6.74,9.35l3.35,4.63,3.22,4.71c2.14,3.12,4.28,6.23,6.41,9.33,8.26,12.57,16.24,24.99,23.46,37.56,14.63,25.01,27.27,49.87,37.89,74.28,21.37,48.77,35.29,95.24,44.13,136.8,4.4,20.8,7.69,40.35,9.93,58.5,.62,4.52,1,9,1.52,13.34,.24,2.17,.48,4.32,.72,6.45,.18,2.13,.35,4.24,.52,6.33,.35,4.16,.68,8.23,1.01,12.19,.23,3.97,.46,7.84,.68,11.62,.11,1.88,.22,3.74,.33,5.57,.06,1.84,.12,3.65,.17,5.43,.12,3.56,.24,7.02,.35,10.38,.07,6.71,.13,13,.19,18.85-.1,5.85-.19,11.26-.27,16.21,0,.62-.02,1.23-.03,1.83Z"/><g class="cls-3"><polygon class="cls-2" points="1373.24 241.68 1502.02 195.11 1850.11 195.11 1920 388.35 1920 962.47 1918.53 963 1373.24 963 1373.24 241.68"/><polygon class="cls-2" points="1920 388.35 1850.11 195.11 1920 195.11 1920 388.35"/></g></g><path class="cls-2" d="M1287.84,338l-554.71,429.05c-24.75,9.39-47.73,24.6-66.76,45.53-4.73,5.2-9.07,10.61-13.05,16.2l-4,5.86c-45.8,70.16-35.26,165.15,28.72,223.32,63.98,58.17,159.55,59.65,225.04,7.4l5.46-4.54c5.18-4.49,10.16-9.33,14.89-14.53,19.03-20.93,31.99-45.24,38.99-70.78L1438.82,221.23l-150.97,116.77Zm-487.5,660.55c-42.57,0-77.08-34.51-77.08-77.08s34.51-77.08,77.08-77.08,77.08,34.51,77.08,77.08-34.51,77.08-77.08,77.08Z"/></svg>