<?xml version="1.0" encoding="UTF-8"?><svg id="Layer_1" xmlns="http://www.w3.org/2000/svg" viewBox="0 0 1920 1920"><defs><style>.cls-1{fill:#fff;}.cls-2{fill:#1b9768;}</style></defs><g><polygon class="cls-2" points="1530.88 960 1455.34 1092.75 1454.46 1245.49 1322.53 1322.52 1245.5 1454.46 1092.75 1455.34 960 1530.87 827.26 1455.34 674.51 1454.46 597.48 1322.52 465.55 1245.49 464.67 1092.75 389.14 960 464.67 827.25 465.55 674.51 597.48 597.48 674.51 465.54 827.26 464.66 960 389.13 1092.75 464.66 1245.5 465.54 1322.53 597.48 1454.46 674.51 1455.34 827.25 1530.88 960"/><path class="cls-2" d="M960,1920l-90.46-623.02-390.12,494.84,233.87-585.13-585.13,233.88,494.85-390.12L0,960l623.02-90.46L128.19,479.42l585.12,233.88L479.44,128.16l390.11,494.86L960,0l90.46,623.02,390.13-494.85-233.88,585.13,585.14-233.88-494.86,390.12,623.02,90.46-623.02,90.46,494.84,390.12-585.12-233.88,233.87,585.13-390.12-494.85-90.46,623.02Zm-59.36-739.11l59.36,408.85,59.36-408.85,255.4,323.98-153.2-383.29,383.29,153.2-323.97-255.41,408.85-59.36-408.85-59.36,323.97-255.4-383.29,153.2,153.21-383.29-255.41,323.97-59.36-408.85-59.36,408.85-255.39-323.97,153.2,383.29-383.3-153.2,323.97,255.41-408.85,59.36,408.85,59.36-323.98,255.4,383.3-153.2-153.2,383.29,255.4-323.97Z"/></g><g><circle class="cls-2" cx="960.01" cy="960" r="541.78" transform="translate(-397.64 960) rotate(-45)"/><path class="cls-1" d="M960,1545.28c-322.72,0-585.27-262.55-585.27-585.28S637.29,374.72,960,374.72s585.28,262.55,585.28,585.28-262.55,585.28-585.28,585.28Zm0-1083.56c-274.75,0-498.27,223.53-498.27,498.28s223.53,498.28,498.27,498.28,498.27-223.53,498.27-498.28-223.52-498.28-498.27-498.28Z"/></g></svg>