<?xml version="1.0" encoding="UTF-8"?><svg id="Layer_1" xmlns="http://www.w3.org/2000/svg" xmlns:xlink="http://www.w3.org/1999/xlink" viewBox="0 0 2083.23 1644.93"><defs><style>.cls-1{clip-path:url(#clippath);}.cls-2{fill:#004d2e;}.cls-3{fill:#fff;}.cls-4{fill:#baead3;}.cls-5{fill:#c0db90;}.cls-6{fill:#bed0dd;}.cls-7{fill:#1b9768;}.cls-8{fill:#4c658f;}.cls-9{fill:#273e32;}</style><clipPath id="clippath"><rect class="cls-8" x="720.57" y="-68.04" width="850.49" height="1547.69" rx="20.42" ry="20.42" transform="translate(1851.62 -440.01) rotate(90)"/></clipPath></defs><g><path class="cls-6" d="M576.63,1644.93c-90.13,0-167.67-60.91-188.57-148.12-19.12-79.78-48.23-172.93-79.05-271.56C203.42,887.41,83.75,504.5,234.15,299.92c66.78-90.85,183.02-136.91,345.46-136.91H1666.93c162.39,0,278.58,46.05,345.36,136.88,150.43,204.6,30.77,587.58-74.81,925.48-30.8,98.58-59.89,191.69-79,271.44-20.89,87.21-98.43,148.12-188.57,148.12H576.63Z"/><path class="cls-7" d="M1661.42,180.29H585.11c-711.98-4.49-288.79,859.54-180.27,1312.49,18.99,79.26,90.28,134.88,171.78,134.88H1669.91c81.5,0,152.79-55.62,171.78-134.88,108.52-452.95,531.71-1316.99-180.27-1312.5Z"/><rect class="cls-7" x="354.71" y="263.3" width="1582.21" height="885.02" rx="26.04" ry="26.04"/><g><rect class="cls-8" x="720.57" y="-68.04" width="850.49" height="1547.69" rx="20.42" ry="20.42" transform="translate(1851.62 -440.01) rotate(90)"/><g class="cls-1"><rect class="cls-7" x="720.57" y="-68.04" width="850.49" height="1547.69" rx="20.42" ry="20.42" transform="translate(1851.62 -440.01) rotate(90)"/><rect class="cls-3" x="1049.1" y="201.41" width="42.99" height="1074.31" transform="translate(-146 278.63) rotate(-13.89)"/><rect class="cls-3" x="543.62" y="285.21" width="25.08" height="1129.58" transform="translate(-386.87 1227.51) rotate(-78.62)"/><path class="cls-4" d="M1549.11,758.74c33.37,210.28,121.87,448.43,237.57,627.16,44.32-22.02,88.65-44.05,132.97-66.07-93.53-111.87-160.4-279.51-205-418.34-45.71-142.27-33.63-295.7-48.09-444.43-15.13-155.64-59.52-306.74-103.7-456.74-.75-2.54-54.02,11.29-59.01,12.7-16.6,4.69-34.78,9.26-49.56,18.47-43.5,27.11-11.29,86.75,11.59,159.61,94.46,300.81,52.43,373.58,83.23,567.64Z"/><rect class="cls-4" x="1248.99" y="893.57" width="173.82" height="338.29" transform="translate(-216.06 351.8) rotate(-13.89)"/><rect class="cls-4" x="747.42" y="220.19" width="173.82" height="266.89" transform="translate(-60.5 210.65) rotate(-13.89)"/><path class="cls-5" d="M1454.27,730.77c74.67-39.01,52.02-250.97,31.31-377.01-36.56-222.54-239.77-201.12-300.79-200.64-73.37,.58-131.67-40.61-142.24,100.45-8.54,113.92,98.1,197.54,133.16,295.77,25.05,70.17-106.52,262.8,16.35,257.53,161.67-6.94,223.04-55.64,262.19-76.09Z"/><path class="cls-5" d="M990.13,809.24c-15.77,143.89-543.35-10.09-630.57-58.49-42.35-23.5-65.28-71.48-76.24-118.66-27.89-120.13,5.69-247,60.01-357.72,23.34-47.56,51.09-94,90.29-129.64,39.2-35.64,91.33-59.65,144.17-55.86,31.24,2.24,63.32,15.02,81.23,41.89,17.9,26.85,10.55,41.09,6.45,60.1-6.51,30.12,14.4,59.44,13.16,89.27-16.17,391.47,335.43,310.68,311.5,529.12Z"/><path class="cls-5" d="M578.48,1411.55c-66.52,7.75-133.05,15.51-199.57,23.26-17.5,2.04-36.19,3.88-51.88-4.14-17.83-9.12-27.69-29.47-29.57-49.41-1.88-19.94,2.93-39.84,7.7-59.29,19.13-77.97,38.26-155.93,57.4-233.9,7.22-29.44,14.85-59.76,33-84.05,28.99-38.81,79.61-55.07,127.84-59.58,122.79-11.48,243.99,38.87,346.39,107.59,43.99,29.52,86.27,63.27,116.32,106.91,30.05,43.64,46.82,98.52,35.96,150.38-6.42,30.66-23.4,60.73-52.43,74.86-10.65,5.18-22.41,8.73-34.33,6.97-9.14-1.36-17.48-5.54-26.09-8.66-28.97-10.5-60.57-2.42-90.23,1.03-37.84,4.41-75.69,8.82-113.53,13.23-37.69,4.39-75.38,8.79-113.07,13.18-4.63,.54-9.27,1.08-13.9,1.62Z"/><rect class="cls-3" x="1094.92" y="734.44" width="977.43" height="25.08" transform="translate(-147.72 485.65) rotate(-16.67)"/><g><polygon class="cls-9" points="1056.63 676.1 1147.95 809.88 1081.11 801.52 1056.63 676.1"/><polygon class="cls-2" points="1056.63 676.1 1022.31 834.4 1081.11 801.52 1056.63 676.1"/></g></g></g></g><g><g><circle class="cls-7" cx="712.93" cy="1374.52" r="182.37" transform="translate(-763.12 906.7) rotate(-45)"/><circle class="cls-7" cx="712.93" cy="1374.52" r="171.74" transform="translate(-763.12 906.7) rotate(-45)"/><circle class="cls-7" cx="712.93" cy="1374.52" r="154.26" transform="translate(-763.12 906.7) rotate(-45)"/><circle class="cls-7" cx="712.93" cy="1374.52" r="133.74" transform="translate(-763.12 906.7) rotate(-45)"/></g><g><circle class="cls-7" cx="1533.53" cy="1374.52" r="182.37" transform="translate(-522.77 1486.96) rotate(-45)"/><circle class="cls-7" cx="1533.53" cy="1374.52" r="171.74" transform="translate(-522.77 1486.96) rotate(-45)"/><circle class="cls-7" cx="1533.53" cy="1374.52" r="154.26" transform="translate(-522.77 1486.96) rotate(-45)"/><circle class="cls-7" cx="1533.53" cy="1374.52" r="133.74" transform="translate(37.21 2789.45) rotate(-85.27)"/></g></g></svg>