<?xml version="1.0" encoding="UTF-8"?><svg id="Layer_1" xmlns="http://www.w3.org/2000/svg" viewBox="0 0 1920 1916.84"><defs><style>.cls-1{fill:#fff;}.cls-2{fill:#1b9768;}.cls-3{fill:#575757;}</style></defs><g><path class="cls-3" d="M1897.71,967.53l-21.41-2.23c0-2.32,.17-4.55,.17-6.87s-.17-4.53-.17-6.83l21.41-2.23c13.66-1.45,23.58-13.68,22.15-27.35l-13.4-127.49c-1.43-13.66-13.7-23.58-27.36-22.2l-21.2,2.28c-.91-4.49-2.08-8.89-3.04-13.33l20.42-6.68c13.14-4.23,20.24-18.29,16-31.38l-39.58-121.88c-4.25-13.07-18.3-20.22-31.39-15.98l-20.55,6.66c-1.82-4.16-3.73-8.28-5.64-12.42l18.82-10.86c11.88-6.87,16-22.09,9.1-33.99l-64.07-111.02c-6.89-11.9-22.11-15.97-34.03-9.1l-19.03,10.97c-2.65-3.64-5.16-7.39-7.85-11.08l16.21-14.59c10.23-9.19,11.06-24.93,1.86-35.14l-85.79-95.31c-9.19-10.19-24.93-11.03-35.16-1.84l-16.26,14.67c-3.34-3.06-6.76-5.98-10.15-8.99l12.92-17.8c8.06-11.12,5.59-26.68-5.51-34.79l-103.7-75.34c-11.14-8.09-26.7-5.61-34.81,5.48l-12.79,17.66c-3.9-2.3-7.85-4.51-11.79-6.78l8.89-19.94c5.59-12.57-.09-27.27-12.66-32.86l-117.09-52.15c-12.53-5.62-27.27,.02-32.86,12.61l-8.8,19.73c-4.29-1.43-8.58-2.99-12.92-4.36l4.46-20.98c2.86-13.44-5.72-26.66-19.16-29.52l-125.41-26.66c-13.44-2.88-26.66,5.72-29.52,19.16l-4.47,21.09c-4.55-.52-9.1-1.04-13.65-1.52V24.9c0-13.74-11.14-24.9-24.88-24.9h-128.18c-13.75,0-24.88,11.16-24.88,24.9v21.48c-4.55,.44-9.07,.95-13.61,1.47l-4.47-21.05c-2.86-13.46-16.09-22.04-29.51-19.18l-125.4,26.66c-13.44,2.84-22.01,16.08-19.15,29.52l4.44,20.96c-4.36,1.37-8.62,2.93-12.94,4.36l-8.79-19.68c-5.58-12.57-20.3-18.23-32.86-12.64l-117.1,52.13c-12.56,5.59-18.2,20.33-12.62,32.86l8.87,19.94c-3.94,2.23-7.87,4.49-11.77,6.78l-12.81-17.62c-8.08-11.14-23.66-13.59-34.78-5.53l-103.7,75.34c-11.13,8.11-13.6,23.67-5.51,34.79l12.93,17.8c-3.38,3.01-6.84,5.94-10.16,8.99l-16.28-14.65c-10.21-9.19-25.96-8.37-35.16,1.84l-85.77,95.28c-9.18,10.19-8.38,25.95,1.85,35.14l16.22,14.59c-2.7,3.68-5.23,7.43-7.87,11.08l-19.02-10.97c-11.93-6.87-27.16-2.77-34.02,9.1l-64.08,111.02c-6.89,11.9-2.81,27.12,9.1,33.99l18.8,10.86c-1.91,4.14-3.82,8.26-5.64,12.42l-20.54-6.66c-13.08-4.25-27.12,2.91-31.36,15.98l-39.63,121.88c-4.25,13.07,2.9,27.14,16,31.36l20.47,6.65c-1,4.49-2.15,8.86-3.08,13.37l-21.15-2.28c-13.7-1.39-25.94,8.54-27.38,22.2L.14,921.96c-1.42,13.72,8.49,25.94,22.16,27.38l21.41,2.25c-.02,2.28-.16,4.55-.16,6.83s.14,4.55,.16,6.87l-21.4,2.23c-13.68,1.41-23.59,13.68-22.16,27.35l13.4,127.47c1.44,13.63,13.68,23.58,27.38,22.11l21.15-2.19c.93,4.47,2.08,8.89,3.08,13.35l-20.45,6.63c-13.08,4.27-20.24,18.3-16,31.36l39.61,121.9c4.25,13.09,18.28,20.24,31.36,15.97l20.54-6.63c1.83,4.16,3.73,8.26,5.64,12.38l-18.78,10.86c-11.91,6.89-16,22.09-9.11,34.03l64.09,110.98c6.88,11.92,22.1,16,34,9.1l19.03-10.99c2.63,3.68,5.16,7.48,7.87,11.1l-16.2,14.61c-10.24,9.17-11.04,24.93-1.85,35.16l85.78,95.24c9.18,10.23,24.92,11.06,35.16,1.84l16.23-14.63c3.34,3.05,6.81,6,10.19,8.99l-12.93,17.8c-8.07,11.1-5.61,26.66,5.5,34.77l103.71,75.32c11.12,8.11,26.68,5.64,34.78-5.48l12.8-17.64c3.89,2.32,7.84,4.55,11.78,6.81l-8.85,19.92c-5.6,12.53,.04,27.25,12.62,32.84l117.09,52.15c12.57,5.59,27.28-.04,32.87-12.62l8.77-19.7c4.34,1.45,8.59,3.01,12.95,4.38l-4.44,20.92c-2.86,13.46,5.73,26.68,19.16,29.52l125.39,26.66c13.45,2.88,26.66-5.72,29.53-19.16l4.47-21.05c4.51,.5,9,1.06,13.55,1.52v21.46c0,13.72,11.13,24.91,24.88,24.91h128.18c13.74,0,24.88-11.18,24.88-24.91v-21.46c4.55-.46,9.06-1.02,13.57-1.52l4.51,21.05c2.86,13.46,16.04,22.04,29.52,19.18l125.37-26.66c13.48-2.84,22.02-16.06,19.2-29.5l-4.47-20.96c4.33-1.37,8.63-2.93,12.92-4.38l8.8,19.73c5.59,12.55,20.29,18.23,32.86,12.61l117.09-52.13c12.57-5.59,18.21-20.31,12.62-32.86l-8.84-19.94c3.94-2.26,7.89-4.49,11.79-6.81l12.79,17.64c8.11,11.12,23.67,13.59,34.81,5.5l103.65-75.32c11.14-8.09,13.61-23.65,5.51-34.75l-12.92-17.79c3.42-3.03,6.85-5.98,10.19-9.04l16.26,14.65c10.23,9.19,25.97,8.39,35.16-1.84l85.79-95.26c9.19-10.19,8.37-25.94-1.86-35.16l-16.21-14.56c2.69-3.66,5.24-7.44,7.85-11.1l19.03,10.97c11.92,6.89,27.14,2.8,34.03-9.12l64.12-110.98c6.85-11.94,2.77-27.12-9.15-34.01l-18.77-10.84c1.91-4.16,3.82-8.26,5.64-12.42l20.55,6.63c13.05,4.27,27.09-2.88,31.34-15.97l39.62-121.9c4.25-13.07-2.91-27.09-16-31.36l-20.42-6.63c.95-4.47,2.12-8.84,3.04-13.33l21.15,2.21c13.7,1.45,25.92-8.5,27.4-22.15l13.4-127.47c1.43-13.68-8.5-25.94-22.15-27.35Zm-937.78,658.72c-368.09,0-667.55-299.57-667.55-667.75S591.84,290.71,959.93,290.71s667.74,299.55,667.74,667.78-299.55,667.75-667.74,667.75Z"/><path class="cls-1" d="M960,314.75c354.9,0,643.66,288.76,643.66,643.67s-288.76,643.67-643.66,643.67S316.33,1313.36,316.33,958.42,605.07,314.75,960,314.75h0Zm0-44.39c-380,0-688.06,308.07-688.06,688.06s308.06,688.06,688.06,688.06,688.05-308.05,688.05-688.06S1340,270.36,960,270.36h0Z"/><path class="cls-2" d="M1713.25,1516.93l-16.21-14.56c2.69-3.66,5.24-7.44,7.85-11.1l19.03,10.97c11.92,6.89,27.14,2.8,34.03-9.12l64.12-110.98c6.85-11.94,2.77-27.12-9.15-34.01l-18.77-10.84c1.91-4.16,3.82-8.26,5.64-12.42l20.55,6.63c13.05,4.27,27.09-2.88,31.34-15.97l39.62-121.9c4.25-13.07-2.91-27.09-16-31.36l-20.42-6.63c.95-4.47,2.12-8.84,3.04-13.33l21.15,2.21c13.7,1.45,25.92-8.5,27.4-22.15l13.4-127.47c1.43-13.68-8.5-25.94-22.15-27.35l-21.41-2.23c0-2.32,.17-4.55,.17-6.87s-.17-4.53-.17-6.83l21.41-2.23c13.66-1.45,23.58-13.68,22.15-27.35l-13.4-127.49c-1.43-13.66-13.7-23.58-27.36-22.2l-21.2,2.28c-.91-4.49-2.08-8.89-3.04-13.33l20.42-6.68c13.14-4.23,20.24-18.29,16-31.38l-39.58-121.88c-4.25-13.07-18.3-20.22-31.39-15.98l-20.55,6.66c-1.82-4.16-3.73-8.28-5.64-12.42l18.82-10.86c11.88-6.87,16-22.09,9.1-33.99l-64.07-111.02c-6.89-11.9-22.11-15.97-34.03-9.1l-19.03,10.97c-2.65-3.64-5.16-7.39-7.85-11.08l16.21-14.59c10.23-9.19,11.06-24.93,1.86-35.14l-85.79-95.31c-9.19-10.19-24.93-11.03-35.16-1.84l-16.26,14.67c-3.34-3.06-6.76-5.98-10.15-8.99l12.92-17.8c8.06-11.12,5.59-26.68-5.51-34.79l-103.7-75.34c-11.14-8.09-26.7-5.61-34.81,5.48l-12.79,17.66c-3.9-2.3-7.85-4.51-11.79-6.78l8.89-19.94c5.59-12.57-.09-27.27-12.66-32.86l-117.09-52.15c-12.53-5.62-27.27,.02-32.86,12.61l-8.8,19.73c-4.29-1.43-8.58-2.99-12.92-4.36l4.46-20.98c2.86-13.44-5.72-26.66-19.16-29.52l-125.41-26.66c-13.44-2.88-26.66,5.72-29.52,19.16l-4.47,21.09c-4.55-.52-9.1-1.04-13.65-1.52V24.9c0-13.74-11.14-24.9-24.88-24.9h-128.18c-13.75,0-24.88,11.16-24.88,24.9v21.48c-4.55,.44-9.07,.95-13.61,1.47l-4.47-21.05c-2.86-13.46-16.09-22.04-29.51-19.18l-125.4,26.66c-13.44,2.84-22.01,16.08-19.15,29.52l4.44,20.96c-4.36,1.37-8.62,2.93-12.94,4.36l-8.79-19.68c-5.58-12.57-20.3-18.23-32.86-12.64l-117.1,52.13c-12.56,5.59-18.2,20.33-12.62,32.86l8.87,19.94c-3.94,2.23-7.87,4.49-11.77,6.78l-12.81-17.62c-8.08-11.14-23.66-13.59-34.78-5.53l-103.7,75.34c-11.13,8.11-13.6,23.67-5.51,34.79l12.93,17.8c-3.38,3.01-6.84,5.94-10.16,8.99l-16.28-14.65c-10.21-9.19-25.96-8.37-35.16,1.84l-85.77,95.28c-9.18,10.19-8.38,25.95,1.85,35.14l16.22,14.59c-2.7,3.68-5.23,7.43-7.87,11.08l-19.02-10.97c-11.93-6.87-27.16-2.77-34.02,9.1l-64.08,111.02c-6.89,11.9-2.81,27.12,9.1,33.99l18.8,10.86c-1.91,4.14-3.82,8.26-5.64,12.42l-20.54-6.66c-13.08-4.25-27.12,2.91-31.36,15.98l-39.63,121.88c-4.25,13.07,2.9,27.14,16,31.36l20.47,6.65c-1,4.49-2.15,8.86-3.08,13.37l-21.15-2.28c-13.7-1.39-25.94,8.54-27.38,22.2L.14,921.96c-1.42,13.72,8.49,25.94,22.16,27.38l21.41,2.25c-.02,2.28-.16,4.55-.16,6.83s.14,4.55,.16,6.87l-21.4,2.23c-13.68,1.41-23.59,13.68-22.16,27.35l13.4,127.47c1.44,13.63,13.68,23.58,27.38,22.11l21.15-2.19c.93,4.47,2.08,8.89,3.08,13.35l-20.45,6.63c-13.08,4.27-20.24,18.3-16,31.36l39.61,121.9c4.25,13.09,18.28,20.24,31.36,15.97l20.54-6.63c1.83,4.16,3.73,8.26,5.64,12.38l-18.78,10.86c-11.91,6.89-16,22.09-9.11,34.03l64.09,110.98c6.88,11.92,22.1,16,34,9.1l19.03-10.99c2.63,3.68,5.16,7.48,7.87,11.1l-16.2,14.61c-10.24,9.17-11.04,24.93-1.85,35.16l85.78,95.24c9.18,10.23,24.92,11.06,35.16,1.84l16.23-14.63c3.34,3.05,6.81,6,10.19,8.99l-12.93,17.8c-8.07,11.1-5.61,26.66,5.5,34.77l103.71,75.32c11.12,8.11,26.68,5.64,34.78-5.48l12.8-17.64c3.89,2.32,7.84,4.55,11.78,6.81l-8.85,19.92c-5.6,12.53,.04,27.25,12.62,32.84l117.09,52.15c12.57,5.59,27.28-.04,32.87-12.62l8.77-19.7c4.34,1.45,8.59,3.01,12.95,4.38l-4.44,20.92c-2.86,13.46,5.73,26.68,19.16,29.52l125.39,26.66c13.45,2.88,26.66-5.72,29.53-19.16l4.47-21.05c4.51,.5,9,1.06,13.55,1.52v21.46c0,13.72,11.13,24.91,24.88,24.91h128.18c13.74,0,24.88-11.18,24.88-24.91v-21.46c4.55-.46,9.06-1.02,13.57-1.52l4.51,21.05c2.86,13.46,16.04,22.04,29.52,19.18l125.37-26.66c13.48-2.84,22.02-16.06,19.2-29.5l-4.47-20.96c4.33-1.37,8.63-2.93,12.92-4.38l8.8,19.73c5.59,12.55,20.29,18.23,32.86,12.61l117.09-52.13c12.57-5.59,18.21-20.31,12.62-32.86l-8.84-19.94c3.94-2.26,7.89-4.49,11.79-6.81l12.79,17.64c8.11,11.12,23.67,13.59,34.81,5.5l103.65-75.32c11.14-8.09,13.61-23.65,5.51-34.75l-12.92-17.79c3.42-3.03,6.85-5.98,10.19-9.04l16.26,14.65c10.23,9.19,25.97,8.39,35.16-1.84l85.79-95.26c9.19-10.19,8.37-25.94-1.86-35.16Zm-753.26,351.37c-501.72,0-909.88-408.15-909.88-909.88S458.27,48.54,959.99,48.54s909.87,408.18,909.87,909.88-408.17,909.88-909.87,909.88Z"/><path class="cls-2" d="M959.99,48.54C458.27,48.54,50.11,456.72,50.11,958.42s408.16,909.88,909.88,909.88,909.87-408.15,909.87-909.88S1461.69,48.54,959.99,48.54Zm-.06,1577.7c-368.09,0-667.55-299.57-667.55-667.75S591.84,290.71,959.93,290.71s667.74,299.55,667.74,667.78-299.55,667.75-667.74,667.75Z"/></g><path class="cls-2" d="M959.91,309.52c-357.39,0-647.38,289.82-647.38,647.37s289.98,647.54,647.38,647.54,647.54-289.82,647.54-647.54S1317.62,309.52,959.91,309.52Zm90.36,144.1c1.47-19.54,19.7-33.22,38.75-28.82,138.56,33.7,261.33,122.93,336.72,245.04,5.05,7.98,6.35,17.42,3.58,26.05-2.77,8.79-9.6,15.96-18.72,19.7l-352.83,144.42c-4.07,1.63-8.14,2.44-11.89,2.44-6.84,0-12.86-2.44-17.26-7.16-4.88-5.21-7.16-12.86-6.67-21.17l28.33-380.51Zm16.61,499.86c-17.59,5.7-36.48-3.91-42.17-21.49-5.7-17.58,3.9-36.47,21.49-42.01,17.59-5.86,36.48,3.91,42.18,21.33,5.69,17.59-4.07,36.47-21.5,42.17Zm-66.92,54.71c15.15-10.91,35.98-7.65,46.89,7.33,10.75,15.14,7.49,35.98-7.49,46.73-14.82,10.91-35.98,7.65-46.73-7.33-10.74-14.98-7.49-35.82,7.33-46.73Zm-40.05-190.01c18.56,0,33.54,14.98,33.54,33.54s-14.98,33.22-33.54,33.22-33.54-14.82-33.54-33.22,14.98-33.54,33.54-33.54Zm-39.89,190.01c14.82,10.91,18.4,31.91,7.33,46.73-10.75,14.98-31.75,18.24-46.56,7.49-14.99-10.91-18.4-31.75-7.33-46.89,10.75-14.82,31.59-18.07,46.56-7.33Zm-67.08-54.71c-17.42-5.54-27.02-24.42-21.33-41.85,5.87-17.75,24.76-27.19,42.18-21.65,17.59,5.7,27.19,24.59,21.49,42.17-5.7,17.59-24.58,27.19-42.33,21.33Zm-358.85-283.63c75.54-122.12,198.31-211.34,336.87-244.88,19.38-4.72,37.29,9.12,38.76,28.66l28.17,380.35c.65,8.3-1.46,15.96-6.35,21.17-4.4,4.72-10.58,7.33-17.26,7.33-3.9,0-7.82-.81-11.89-2.44l-353.16-144.42c-8.95-3.74-15.63-10.91-18.56-19.54-2.77-8.79-1.63-18.07,3.43-26.21Zm72.78,652.75c-9.28,0-17.74-4.07-23.93-11.23-84.18-98.83-130.42-224.69-130.42-354.3,0-14.33,.48-28,1.79-41.85,1.3-19.37,19.7-32.56,38.92-28l370.74,90.69c10.1,2.6,17.26,8.79,19.86,16.93,2.61,8.14,.33,17.26-6.19,24.91l-246.35,291.12c-6.35,7.49-15.3,11.72-24.42,11.72Zm619.53,121.3c-2.77,8.63-9.28,15.79-18.07,19.38-66.43,27.35-136.44,41.19-208.41,41.19s-141.82-13.84-208.25-41.19c-8.63-3.58-15.15-10.59-18.07-19.22-2.77-8.79-1.47-18.56,3.58-26.7l200.92-324.5c10.59-17.42,33.22-17.42,43.96,.16l200.59,324.34c5.22,7.98,6.51,17.58,3.74,26.54Zm190.5-132.54c-6.03,7.16-14.65,11.23-23.77,11.23s-18.24-4.23-24.42-11.72l-246.35-291.12c-6.52-7.65-8.79-16.77-6.19-24.91,2.77-8.14,9.93-14.33,19.86-16.77l370.42-90.86c20.03-4.72,37.94,8.63,39.4,28.17,1.14,13.84,1.8,27.52,1.8,41.68,0,129.44-46.41,255.3-130.75,354.3Z"/></svg>