<?xml version="1.0" encoding="UTF-8"?><svg id="Layer_1" xmlns="http://www.w3.org/2000/svg" viewBox="0 0 1920 1920"><defs><style>.cls-1{fill:#fff;}.cls-2{fill:#931222;}.cls-3{fill:#16281f;}.cls-4{fill:#1b9768;}.cls-5{fill:#2f3d37;}</style></defs><circle class="cls-5" cx="960" cy="960" r="960"/><circle class="cls-5" cx="960" cy="960" r="816.45"/><circle class="cls-3" cx="960" cy="960" r="666.17"/><circle class="cls-4" cx="955.97" cy="956.62" r="628.05"/><circle class="cls-4" cx="955.97" cy="956.62" r="564.48" transform="translate(-396.44 956.16) rotate(-45)"/><g><path class="cls-2" d="M501.01,994.97l26.46-2.31c1.25,10.61,4.17,19.31,8.75,26.1,4.57,6.8,11.69,12.29,21.33,16.49,9.64,4.19,20.49,6.29,32.54,6.29,10.7,0,20.15-1.59,28.34-4.77,8.19-3.18,14.29-7.54,18.3-13.09,4-5.54,6-11.6,6-18.15s-1.93-12.46-5.78-17.42c-3.86-4.97-10.22-9.13-19.09-12.51-5.69-2.21-18.27-5.66-37.74-10.34-19.47-4.67-33.11-9.09-40.92-13.23-10.12-5.3-17.67-11.88-22.63-19.74-4.97-7.86-7.44-16.65-7.44-26.39,0-10.7,3.04-20.7,9.11-30.01,6.08-9.3,14.95-16.36,26.61-21.18,11.67-4.82,24.64-7.23,38.9-7.23,15.71,0,29.58,2.53,41.58,7.59,12,5.06,21.23,12.51,27.69,22.34,6.46,9.84,9.93,20.97,10.41,33.41l-26.9,2.02c-1.45-13.4-6.34-23.52-14.68-30.37-8.34-6.85-20.66-10.27-36.94-10.27s-29.33,3.11-37.09,9.33c-7.76,6.22-11.64,13.71-11.64,22.48,0,7.62,2.75,13.89,8.24,18.8,5.4,4.91,19.5,9.95,42.3,15.11,22.8,5.16,38.44,9.66,46.92,13.52,12.34,5.69,21.45,12.9,27.33,21.62,5.88,8.73,8.82,18.78,8.82,30.15s-3.23,21.91-9.69,31.89c-6.46,9.97-15.74,17.74-27.84,23.28-12.1,5.54-25.72,8.32-40.85,8.32-19.19,0-35.26-2.8-48.23-8.39-12.97-5.59-23.14-14-30.51-25.23-7.38-11.23-11.26-23.93-11.64-38.11Z"/><path class="cls-1" d="M501.01,1000.74l26.46-2.31c1.25,10.61,4.17,19.31,8.75,26.1,4.57,6.8,11.69,12.29,21.33,16.49,9.64,4.19,20.49,6.29,32.54,6.29,10.7,0,20.15-1.59,28.34-4.77,8.19-3.19,14.29-7.54,18.3-13.09,4-5.54,6-11.59,6-18.15s-1.93-12.46-5.78-17.42c-3.86-4.97-10.22-9.13-19.09-12.51-5.69-2.22-18.27-5.66-37.74-10.34-19.47-4.67-33.11-9.09-40.92-13.23-10.12-5.3-17.67-11.88-22.63-19.74-4.97-7.86-7.44-16.65-7.44-26.39,0-10.7,3.04-20.7,9.11-30.01,6.08-9.3,14.95-16.36,26.61-21.18,11.67-4.82,24.64-7.23,38.9-7.23,15.71,0,29.58,2.53,41.58,7.59,12,5.06,21.23,12.51,27.69,22.34,6.46,9.83,9.93,20.97,10.41,33.41l-26.9,2.02c-1.45-13.4-6.34-23.52-14.68-30.37-8.34-6.85-20.66-10.27-36.94-10.27s-29.33,3.11-37.09,9.33c-7.76,6.22-11.64,13.71-11.64,22.48,0,7.62,2.75,13.89,8.24,18.8,5.4,4.92,19.5,9.95,42.3,15.11,22.8,5.16,38.44,9.66,46.92,13.52,12.34,5.69,21.45,12.9,27.33,21.62,5.88,8.73,8.82,18.78,8.82,30.15s-3.23,21.91-9.69,31.89c-6.46,9.97-15.74,17.74-27.84,23.28-12.1,5.54-25.72,8.32-40.85,8.32-19.19,0-35.26-2.8-48.23-8.39-12.97-5.59-23.14-14-30.51-25.23-7.38-11.23-11.26-23.93-11.64-38.11Z"/><path class="cls-2" d="M762.03,1063.09v-186.98h-69.84v-25.02h168.03v25.02h-70.14v186.98h-28.05Z"/><path class="cls-2" d="M1327.03,1058.33v-186.98h-69.84v-25.02h168.03v25.02h-70.14v186.98h-28.05Z"/><path class="cls-1" d="M762.03,1068.85v-186.98h-69.84v-25.02h168.03v25.02h-70.14v186.98h-28.05Z"/><path class="cls-2" d="M843.73,1063.09l81.41-212h30.23l86.76,212h-31.96l-24.73-64.21h-88.65l-23.28,64.21h-29.79Zm61.17-87.06h71.87l-22.12-58.71c-6.75-17.83-11.77-32.48-15.04-43.96-2.7,13.59-6.51,27.09-11.42,40.49l-23.28,62.18Z"/><path class="cls-1" d="M843.73,1070.01l81.41-212h30.23l86.76,212h-31.96l-24.73-64.21h-88.65l-23.28,64.21h-29.79Zm61.17-87.06h71.87l-22.12-58.71c-6.75-17.83-11.77-32.48-15.04-43.96-2.7,13.59-6.51,27.09-11.42,40.49l-23.28,62.18Z"/><path class="cls-2" d="M1064.98,1063.09v-212h93.99c18.89,0,33.26,1.9,43.09,5.71,9.83,3.81,17.69,10.53,23.57,20.17,5.88,9.64,8.82,20.3,8.82,31.96,0,15.04-4.87,27.72-14.61,38.03-9.74,10.31-24.78,16.87-45.12,19.66,7.42,3.57,13.06,7.09,16.92,10.56,8.19,7.52,15.95,16.92,23.28,28.2l36.88,57.7h-35.28l-28.06-44.11c-8.19-12.73-14.94-22.46-20.24-29.21-5.3-6.75-10.05-11.47-14.24-14.17-4.2-2.7-8.46-4.58-12.8-5.64-3.18-.68-8.39-1.02-15.62-1.02h-32.53v94.14h-28.05Zm28.05-118.43h60.3c12.82,0,22.84-1.33,30.08-3.98,7.23-2.65,12.73-6.89,16.48-12.73,3.76-5.83,5.64-12.17,5.64-19.01,0-10.03-3.64-18.27-10.92-24.73-7.28-6.46-18.78-9.69-34.49-9.69h-67.1v70.14Z"/><path class="cls-1" d="M1064.98,1071.16v-212h93.99c18.89,0,33.26,1.91,43.09,5.72,9.83,3.81,17.69,10.53,23.57,20.17,5.88,9.64,8.82,20.3,8.82,31.96,0,15.04-4.87,27.72-14.61,38.03-9.74,10.32-24.78,16.87-45.12,19.66,7.42,3.57,13.06,7.09,16.92,10.56,8.19,7.52,15.95,16.92,23.28,28.2l36.88,57.7h-35.28l-28.06-44.11c-8.19-12.73-14.94-22.46-20.24-29.21-5.3-6.75-10.05-11.47-14.24-14.17-4.2-2.7-8.46-4.58-12.8-5.64-3.18-.68-8.39-1.02-15.62-1.02h-32.53v94.15h-28.05Zm28.05-118.43h60.3c12.82,0,22.84-1.33,30.08-3.98,7.23-2.65,12.73-6.89,16.48-12.73,3.76-5.83,5.64-12.17,5.64-19.01,0-10.03-3.64-18.27-10.92-24.73-7.28-6.46-18.78-9.69-34.49-9.69h-67.1v70.14Z"/><path class="cls-1" d="M1327.02,1063.09v-186.98h-69.84v-25.02h168.04v25.02h-70.14v186.98h-28.05Z"/></g></svg>