<?xml version="1.0" encoding="UTF-8"?><svg xmlns="http://www.w3.org/2000/svg" viewBox="0 0 1803.97 1920"><defs><style>.cls-1{fill:#00cb80;}.cls-2{fill:#b9e273;}.cls-3{fill:#17242d;}.cls-4{fill:#24333f;}.cls-5{fill:#1b9768;}.cls-6{fill:#374651;}.cls-7{fill:#45585e;}.cls-8{fill:#465660;}.cls-9{fill:#61a181;}.cls-10{fill:#354551;}.cls-11{fill:#314a3d;}.cls-12{fill:#4c5f66;}.cls-13{fill:#4bce94;}.cls-14{fill:#bdcb99;mix-blend-mode:multiply;opacity:.5;}.cls-15{isolation:isolate;}</style></defs><g class="cls-15"><g id="Layer_1"><g><path class="cls-4" d="M255.76,1462.65l8.35-.99,255.36-31.12,849.72-103.39s134.51,165.64,153.27,265.01c18.77,99.37-121.98,207.78-381.56,292.07-86.37,28.05-181.42,37.76-279.38,35.46-196.39-4.56-404.45-57.5-577.62-107.73-239.08-69.29-51-312.35-19.8-350.29,2.67-3.25,4.18-5.01,4.18-5.01l-12.53,6.01Z"/><path class="cls-1" d="M1118.99,80.47s-586.69-29.3-522.32,469.76c11.95,92.61,93.83,367.38-68.81,367.38s-336.47-205.77-478.53-39.15c-172.02,201.76,161.07,584.19,161.07,584.19l605.2-108.41S965.74,149.73,1118.99,80.47Z"/><path class="cls-5" d="M122.05,912.34c142.07-166.62,315.89,39.15,478.53,39.15s80.75-274.76,68.81-367.38c-46.37-359.49,245.07-444.82,411.72-464.43,12.55-19.94,25.21-33.48,37.88-39.21,0,0-586.69-29.3-522.32,469.76,11.95,92.61,93.83,367.38-68.81,367.38s-336.47-205.77-478.53-39.15c-172.02,201.76,173.59,602.26,173.59,602.26l27.24-25.19c-79.59-104.03-265.92-381.57-128.11-543.19Z"/><path class="cls-13" d="M815.61,1354.24S946.97,336.43,1018.91,197.91C1090.84,59.39,1184.67-21.92,1419.25,5.19c234.57,27.1,319.02,249.94,319.02,313.17s-344.04,1050.94-344.04,1050.94l-578.62-15.06Z"/><path class="cls-1" d="M160.75,1329.4s7.43-246.17,686.13-197.99c0,0,506.68,93.35,609.89,222.84l-588,81.31-708.02-106.15Z"/><path class="cls-2" d="M1722.63,372.56S1491.59,63.53,1015.78,191.89c-102.54,27.66-326.03,45-209.55,361.35,12.93,35.11,75.06,126.47-37.53,144.54-112.6,18.07-156.38,96.36-109.47,295.11,46.91,198.75-3.13,132.5-106.34,63.24-94.27-63.26-232.24-108.31-214.93,56.45,3.07,29.19,29.42,50.94,59.88,49.96,141.91-4.55,540.05,5.21,642.96,248.92l381.57-132.5,300.26-906.4Z"/><path class="cls-5" d="M1722.64,372.58l-300.25,906.37-381.6,132.53c-43.91-104.02-141.64-165.46-250.29-201.27-145.86-48.2-311.33-50.27-392.68-47.65-.94,.05-1.88,.05-2.82,.05-29.23-.45-54.09-21.73-57.05-50-1.22-11.79-1.69-22.58-1.41-32.43,.05-1.94,.14-3.84,.24-5.69,7.37-118.75,129.95-76.11,216.09-18.34,83.18,55.83,131.83,109.67,123.01,24.44-.33-3.16-.7-6.55-1.22-10.21-.24-1.81-.52-3.66-.8-5.6-1.88-12.65-4.79-27.78-8.73-45.76-.52-2.53-1.08-5.1-1.69-7.77-1.31-5.83-2.72-11.93-4.22-18.34-46.91-198.75-3.14-277.02,109.45-295.09,112.6-18.07,50.48-109.45,37.53-144.54-1.5-4.11-2.96-8.18-4.36-12.2-3.05-8.76-5.86-17.35-8.44-25.75-.94-3.12-1.88-6.23-2.72-9.26-.94-3.21-1.83-6.37-2.67-9.53-.94-3.52-1.83-6.96-2.67-10.34-.7-2.76-1.36-5.47-1.97-8.18-.99-4.11-1.88-8.18-2.67-12.15-48.23-235.47,136.66-264.15,228.85-289.04,24.26-6.55,47.95-11.92,70.98-16.22,101.85-19.02,191.55-16.98,269.15-2.85,139.2,25.29,239.36,89.53,300.63,141.24,1.31,1.08,2.63,2.21,3.94,3.34,45.6,39.12,68.4,70.24,68.4,70.24Z"/><path class="cls-11" d="M1395.52,644.12s-108.51-69.21-133.95,121.31c-25.44,190.52-81.79,291.54-34.15,314.28,47.63,22.74,96.43-30.97,164.46-248.7,51.99-166.42,3.65-186.89,3.65-186.89Z"/><path class="cls-3" d="M1404.53,653.02c7.17,24.35,8.59,71.63-19.69,162.17-68.02,217.73-116.82,271.45-164.46,248.7-4.18-1.99-7.51-4.63-10.18-7.83,2.23,11.14,7.56,19.03,17.22,23.64,47.63,22.74,96.43-30.97,164.46-248.7,36.43-116.62,23.6-161.52,12.65-177.98Z"/><path class="cls-6" d="M899.09,1830.87c-4.72,51.23-51.21,89.47-104.47,85.49-176.02-13.16-357.1-59.85-510.71-104.41-239.08-69.29-51-312.35-19.8-350.29l255.36-31.12,324.28,128.46s65.84,157.87,55.35,271.87Z"/><path class="cls-11" d="M856.27,1631.28s547.34,268,559.85-243.91l-559.85,243.91Z"/><path class="cls-11" d="M346.46,1492.76s-112.6,174.65,125.11,216.81c237.7,42.16,253.34-156.59,253.34-156.59l-378.45-60.23Z"/><path class="cls-8" d="M478.6,1691.51c-166.26-29.49-161.14-123.78-143.05-177.81-21.22,47.66-50.91,162.73,136.01,195.88,168.93,29.96,225.69-61.74,244.4-117.31-24.5,55.04-85.76,126.13-237.36,99.24Z"/><path class="cls-1" d="M930.44,1664.51l-6.1-1.54-66.48-16.53-618.57-154.21c-21.49-5.42-39.83-18.93-50.95-37.45l-63.94-106.55s62.44-68.97,222.47-83.56c48.84-4.47,106.78-3.88,174.76,5.24,67.37,9.08,122.17,22.81,166.59,38.62,68.87,24.48,124.42,53.8,164.06,78.19,45.18,27.64,69.67,48.83,69.67,48.83l.38,10.03,8.12,218.94Z"/><path class="cls-12" d="M688.22,1308.53c-204.14,139.06-322.73-10.71-341.35-43.86,48.84-4.47,106.78-3.88,174.76,5.24,67.37,9.08,122.17,22.81,166.59,38.62Z"/><path class="cls-7" d="M438.56,1331.49c-21.55-18.6-7.99-53.07,20.95-52.96,33.46,.13,70.26,2.54,110.59,7.95,44.05,5.94,82.69,13.87,116.6,23.06,.51-.34,1.01-.66,1.52-1.01-44.43-15.81-99.22-29.54-166.59-38.62-67.98-9.12-125.92-9.71-174.76-5.24,11.19,19.92,58.49,81.92,138.74,98.09-18.33-9.01-34.06-20.07-47.05-31.28Z"/><path class="cls-9" d="M1654.24,302.34c-41.57-7.05-89.47-17.62-144.31-32.16-206.89-54.79-353.5-65.68-456.39-50.23-298.33,44.85-228.24,311.22-191.04,369.44,50.06,78.28,46.91,192.69-90.69,165.59-137.6-27.1-89.14,252.95-79.76,355.35,9.38,102.35-117.29-25.61-236.12-94.86-85.62-49.87-111.05,109.9-60.94,147.12-29.23-.45-54.09-21.73-57.05-50-1.22-11.79-1.69-22.58-1.41-32.43,.05-1.94,.14-3.84,.24-5.69,6.94-120.78,128.36-88.22,214.54-30.4,82.81,55.56,132.35,116.9,124.56,36.5-.33-3.16-.7-6.55-1.22-10.21-.24-1.81-.52-3.66-.8-5.6-1.88-12.65-4.79-27.78-8.73-45.76-.52-2.53-1.08-5.1-1.69-7.77-1.31-5.83-2.72-11.93-4.22-18.34-46.91-198.75-3.14-277.02,109.45-295.09,112.6-18.07,50.48-109.45,37.53-144.54-1.5-4.11-2.96-8.18-4.36-12.2-3.05-8.76-5.86-17.35-8.44-25.75-.94-3.12-1.88-6.23-2.72-9.26-.94-3.21-1.83-6.37-2.67-9.53-.94-3.52-1.83-6.96-2.67-10.34-.7-2.76-1.36-5.47-1.97-8.18-.99-4.11-1.88-8.18-2.67-12.15-50.29-241.52,128.36-296.04,222.56-313.11,30.4-5.51,60.1-9.4,88.9-11.83,95.19-7.95,181.56-.09,257.52,16.85,137.13,30.58,240.44,90.79,300.63,141.24,1.31,1.08,2.63,2.21,3.94,3.34Z"/><path class="cls-14" d="M1092.15,140.9c-3.94,6.19-7.83,12.74-11.64,19.69-9.57,17.3-18.67,36.99-26.98,59.35-32.51,87.58-53.39,216.18-47.15,404.81,0,0-27.4,533.4-215.9,585.44-145.86-48.2-311.33-50.27-392.68-47.65-.94,.05-1.88,.05-2.82,.05-29.23-.45-54.09-21.73-57.05-50-1.22-11.79-1.69-22.58-1.41-32.43,.05-1.94,.14-3.84,.24-5.69,6.94-120.78,128.36-88.22,214.54-30.4,82.81,55.56,132.35,116.9,124.56,36.5-.33-3.16-.7-6.55-1.22-10.21-.24-1.81-.52-3.66-.8-5.6-1.88-12.65-4.79-27.78-8.73-45.76-.52-2.53-1.08-5.1-1.69-7.77-1.31-5.83-2.72-11.93-4.22-18.34-46.91-198.75-3.14-277.02,109.45-295.09,112.6-18.07,50.48-109.45,37.53-144.54-1.5-4.11-2.96-8.18-4.36-12.2-3.05-8.76-5.86-17.35-8.44-25.75-.94-3.12-1.88-6.23-2.72-9.26-.94-3.21-1.83-6.37-2.67-9.53-.94-3.52-1.83-6.96-2.67-10.34-.7-2.76-1.36-5.47-1.97-8.18-.99-4.11-1.88-8.18-2.67-12.15-50.29-241.52,128.36-296.04,222.56-313.11,30.4-5.51,60.1-9.4,88.9-11.83Z"/><path class="cls-10" d="M982.38,1026.48c-20.04,40.5-80.24,157.01-126.22,191.89-8.31,6.3-6.86,18.75,2.75,22.99l33.69,14.87c6.17,2.72,13.46,.83,17.36-4.51,23.92-32.75,103.4-145.22,114.13-207.96,.89-5.21-1.66-10.41-6.25-13.29l-15.1-9.48c-7.13-4.48-16.71-1.9-20.37,5.5Z"/><path class="cls-11" d="M1170.6,627.77s-106.34-72.27-137.62,117.44c-31.28,189.71-90.7,289.08-43.79,313.17,46.91,24.09,97.34-28.21,172.02-243.91,57.08-164.87,9.38-186.7,9.38-186.7Z"/><path class="cls-3" d="M1170.6,627.77s-11.28-7.66-27.58-11.45c8.36,3.44,13.5,6.93,13.5,6.93,0,0,47.7,21.83-9.38,186.7-66.84,193.07-114.26,255.17-157.11,248.81,46.68,23.05,96.95-29.87,171.19-244.3,57.08-164.87,9.38-186.7,9.38-186.7Z"/><path class="cls-13" d="M1803.95,324.38c3.14,231.85-265.87,921.46-347.17,1029.86-65.82,87.76-370.9,274.82-526.23,310.16-5.38,1.22-59.41-37.76-73.11-37.17,0,0-88.76-673.51,327.23-571.11,0,0,146.98,54.2,143.89-75.3-3.14-129.46-28.15-837.12,325.26-846.16,0,0,31.48-9.03,65.59,4.25,39.64,15.45,82.85,60.89,84.54,185.47Z"/><path class="cls-13" d="M1387.95,486.99c-31.29,424.59,65.68,644.43-68.78,617.33-134.51-27.1-372.18-42.19-394.08,274-1.45,21.23-2.35,43.99-2.77,67.26-1.6,79.77,1.69,165.68,2.02,217.4l-66.48-16.53c-5.3-45.62-14.73-150.28-5.58-259.72,15.9-189.35,87.5-393.06,332.39-330.59,0,0,146.98,54.2,143.89-75.3-3.14-129.46-150.74-905.74,328.78-859.71,16.09,1.54,27.96,4.52,62.07,17.8-152.38-1.99-312.17,86.45-331.45,348.08Z"/><path class="cls-4" d="M484.86,1292.41c11.7-.45,26.2-.12,40.82,2.47,22.68,4.01,36.51,26.27,29.02,47.27-16.47,46.13-42.71,135.29-33.74,214.95,2.58,22.92-17.16,42.37-40.98,40.04l-19.31-1.89c-17.28-1.69-35.37-24.18-37.58-40.76-6.18-46.15-7.87-133.3,28.14-237.75,4.83-14.02,18.3-23.75,33.63-24.33Z"/><path class="cls-3" d="M525.68,1294.89c-14.62-2.59-29.12-2.92-40.81-2.47-3.02,.12-5.93,.68-8.75,1.47,11.31-.33,24.87,.08,38.62,2.51,22.69,4.01,36.51,26.27,29.02,47.27-16.47,46.12-42.71,135.29-33.74,214.95,2.03,18.03-9.77,33.86-26.49,38.69,22.19,.18,39.89-18.43,37.43-40.19-8.98-79.66,17.27-168.83,33.74-214.95,7.5-21-6.33-43.26-29.02-47.27Z"/></g></g></g></svg>