<?xml version="1.0" encoding="UTF-8"?><svg id="Layer_1" xmlns="http://www.w3.org/2000/svg" viewBox="0 0 1497.89 1920"><defs><style>.cls-1,.cls-2{fill:#1b9768;}.cls-3{fill:#55d59c;}.cls-3,.cls-4,.cls-2,.cls-5{fill-rule:evenodd;}.cls-4{fill:#9ad6e0;}.cls-5{fill:#fff;}</style></defs><polygon class="cls-3" points="986.56 714.85 1202.99 54.41 885.94 0 834.06 756.56 986.56 714.85 986.56 714.85"/><polygon class="cls-2" points="1046.04 708.46 927.07 721.24 1202.99 54.41 1378.92 206.22 1046.04 708.46 1046.04 708.46"/><polygon class="cls-3" points="1046.04 708.46 1378.92 206.22 1494.09 413.36 1133.37 708.46 1046.04 708.46 1046.04 708.46"/><polygon class="cls-2" points="1133.37 708.46 1494.09 413.36 1497.89 612 1124.52 708.46 1133.37 708.46 1133.37 708.46"/><polygon class="cls-4" points="1408.04 708.46 1497.89 612 1124.52 708.46 1408.04 708.46 1408.04 708.46"/><polygon class="cls-2" points="576.47 1569.83 1216.9 1569.83 1216.9 1536.93 576.47 1536.93 576.47 1569.83 576.47 1569.83"/><path class="cls-1" d="M1074.05,1076.45c3.83-4.12,10.28-4.35,14.4-.52,4.12,3.83,4.35,10.28,.52,14.4l-450.58,486.02c-3.83,4.12-10.28,4.35-14.4,.52-4.12-3.83-4.35-10.28-.52-14.4l450.58-486.02h0Z"/><path class="cls-1" d="M475.35,1054.73c-3.83-4.12-10.28-4.35-14.4-.52-4.12,3.83-4.35,10.28-.52,14.4l416.68,250.25c3.83,4.12,10.28,4.35,14.4,.52,4.12-3.83,4.35-10.28,.52-14.4l-416.68-250.25h0Z"/><path class="cls-1" d="M1247.81,1064.27c3.65-4.12,9.81-4.35,13.74-.52,3.93,3.83,4.15,10.28,.49,14.4l-378.16,236.01c-3.65,4.12-9.81,4.35-13.73,.52-3.93-3.83-4.15-10.28-.49-14.4l378.16-236.01h0Z"/><path class="cls-2" d="M465.9,1338.9c160.38,0,290.4,130.02,290.4,290.4s-130.02,290.4-290.4,290.4-290.4-130.01-290.4-290.4,130.02-290.4,290.4-290.4h0Z"/><path class="cls-5" d="M465.9,1394.27c129.8,0,235.03,105.23,235.03,235.03s-105.23,235.03-235.03,235.03-235.02-105.22-235.02-235.03,105.22-235.03,235.02-235.03h0Z"/><path class="cls-2" d="M465.9,1555.18c40.94,0,74.12,33.19,74.12,74.12s-33.19,74.12-74.12,74.12-74.12-33.19-74.12-74.12,33.19-74.12,74.12-74.12h0Z"/><polygon class="cls-2" points="457.52 1088.47 356.27 810.02 1376.41 810.02 1263.76 1084.67 457.52 1088.47 457.52 1088.47"/><path class="cls-3" d="M332.21,637.88c404.26,111.11,838.27,49.39,1165.68-25.88l-88.74,202.46c-348.77,112.86-704.11,90.22-1052.88-4.44l-24.05-172.14h0Z"/><path class="cls-1" d="M114.35,414.1c-3.63-4.29-3.1-10.73,1.2-14.36,4.29-3.63,10.73-3.1,14.36,1.2l951.8,1128.99c3.63,4.29,3.1,10.73-1.2,14.36-4.29,3.63-10.73,3.1-14.36-1.19L114.35,414.1h0Z"/><path class="cls-2" d="M24.36,375.88H166.12c13.4,0,24.36,10.96,24.36,24.36h0c0,13.41-10.96,24.37-24.36,24.37H24.36c-13.4,0-24.36-10.96-24.36-24.36H0c0-13.41,10.96-24.37,24.36-24.37h0Z"/><path class="cls-2" d="M1203.86,1353.34c156.48,0,283.33,126.86,283.33,283.33s-126.85,283.33-283.33,283.33-283.33-126.86-283.33-283.33,126.85-283.33,283.33-283.33h0Z"/><path class="cls-5" d="M1203.86,1407.36c126.64,0,229.3,102.67,229.3,229.3s-102.66,229.3-229.3,229.3-229.3-102.66-229.3-229.3,102.66-229.3,229.3-229.3h0Z"/><path class="cls-2" d="M1203.86,1564.35c39.94,0,72.32,32.38,72.32,72.32s-32.38,72.32-72.32,72.32-72.32-32.38-72.32-72.32,32.37-72.32,72.32-72.32h0Z"/></svg>