<?xml version="1.0" encoding="UTF-8"?><svg xmlns="http://www.w3.org/2000/svg" viewBox="0 0 951.79 1920"><defs><style>.cls-1{fill:#1b9768;}.cls-2{fill:#3a3a3a;}.cls-3{fill:#59b58e;}.cls-4{fill:#58585a;}.cls-5{fill:#800116;mix-blend-mode:multiply;opacity:.23;}.cls-6{isolation:isolate;}</style></defs><g class="cls-6"><g id="Layer_1"><g><g><circle class="cls-4" cx="165.24" cy="1844.92" r="75.08"/><circle class="cls-4" cx="773.58" cy="1844.92" r="75.08"/></g><g><g><g><rect class="cls-4" x="325.58" y="81.28" width="45.97" height="342.29"/><rect class="cls-2" x="325.58" y="81.28" width="45.97" height="62.53"/><rect class="cls-2" x="325.58" y="344.02" width="45.97" height="79.55"/></g><g><rect class="cls-4" x="601.1" y="81.28" width="45.89" height="342.29"/><rect class="cls-2" x="601.1" y="81.28" width="45.89" height="62.53"/><rect class="cls-2" x="601.1" y="344.02" width="45.89" height="79.55"/></g></g><g><path class="cls-1" d="M661.63,106.38c-.77,11.63-28.03,11.09-47.2,9.63-8.23-.54-15.02-1.31-17.48-1.31-8.39,0-2.08-37.5-2.08-60.52,0-10.47-175.34-6.24-200.36-6.24-14.63,0-8.39,41.74-8.39,60.52,0,10.32-12.63,11.71-28.49,11.63-12.93-.08-28.11-1.16-40.35,.84-12.55,2.08-4.16-87.63-4.16-108.5,0-17.25,337.13-16.56,346.45,2.08,4.16,8.32,4.16,62.6,2.08,91.86Z"/><path class="cls-1" d="M614.42,38.54V116.01c-8.23-.54-15.02-1.31-17.48-1.31-8.39,0-2.08-37.5-2.08-60.52,0-10.47-175.34-6.24-200.36-6.24-14.63,0-8.39,41.74-8.39,60.52,0,10.32-12.63,11.71-28.49,11.63-2.47-35.19-4.01-87.56,7.86-89.25,17.94-2.54,248.95-12.86,248.95,7.7Z"/></g></g><g><path class="cls-1" d="M951.79,544.62V1638.32c0,89.94-72.93,162.79-162.87,162.79H162.79c-89.86,0-162.79-72.85-162.79-162.79V544.62c0-89.86,72.93-162.79,162.79-162.79H788.92c89.94,0,162.87,72.93,162.87,162.79Z"/><g><path class="cls-3" d="M211.46,1722.38h0c-25.52,0-46.2-20.69-46.2-46.2V503.14c0-25.52,20.68-46.2,46.2-46.2h0c25.52,0,46.2,20.69,46.2,46.2V1676.18c0,25.52-20.69,46.2-46.2,46.2Z"/><path class="cls-3" d="M479.69,1722.38h0c-25.52,0-46.2-20.69-46.2-46.2V503.14c0-25.52,20.69-46.2,46.2-46.2h0c25.52,0,46.2,20.69,46.2,46.2V1676.18c0,25.52-20.69,46.2-46.2,46.2Z"/><path class="cls-3" d="M747.93,1722.38h0c-25.52,0-46.2-20.69-46.2-46.2V503.14c0-25.52,20.69-46.2,46.2-46.2h0c25.52,0,46.2,20.69,46.2,46.2V1676.18c0,25.52-20.69,46.2-46.2,46.2Z"/></g><path class="cls-5" d="M951.79,1522.2v116.12c0,89.94-72.93,162.79-162.87,162.79H162.79c-89.86,0-162.79-72.85-162.79-162.79V544.62c0-89.86,72.93-162.79,162.79-162.79h111.97c-23.8,217.62-76.13,1032.54,242.15,1135.21,100.42,32.39,434.87,5.16,434.87,5.16Z"/></g></g></g></g></svg>